<?xml version="1.0" encoding="UTF-8" standalone="no"?>
<svg xmlns:rdf="http://www.w3.org/1999/02/22-rdf-syntax-ns#" xmlns="http://www.w3.org/2000/svg" xml:space="preserve" height="60.381" viewBox="0 0 323.69827 60.38086" width="323.7" version="1.1" xmlns:cc="http://creativecommons.org/ns#" xmlns:dc="http://purl.org/dc/elements/1.1/"><g transform="matrix(1.25 0 0 -1.25 -120.23 347.55)"><path d="m256.21 277.35-0.20469-0.0125c-0.14-0.439-0.26037-0.79012-0.35937-1.0531-0.392-1.035-0.63763-1.6985-0.74063-1.9875l-0.65937-1.8422c-0.108-0.308-0.21894-0.60337-0.33594-0.88437-0.038-0.087-0.12843-0.33869-0.27343-0.75469-0.303-0.872-0.57731-1.548-0.82031-2.025-0.117-0.22-0.25832-0.37194-0.42032-0.46094-0.066-0.033-0.27594-0.0664-0.63594-0.0984-0.08-0.005-0.13574-0.008-0.16874-0.008h-0.16095c-0.052 0-0.109-0.0177-0.175-0.0547-0.018-0.057-0.0281-0.10237-0.0281-0.13437v-0.0406c0.178-0.014 0.32238-0.0219 0.43438-0.0219 0.07 0 0.18574 0.004 0.34374 0.0141 0.243 0.009 0.41195 0.0141 0.51095 0.0141 0.097 0 0.26262-0.005 0.49062-0.0141 0.495-0.024 0.92812-0.0344 1.3031-0.0344 0.112 0 0.27126 0.00025 0.48126 0.006 0.014 0.047 0.0218 0.0807 0.0218 0.10469 0 0.033-0.0255 0.0705-0.0766 0.1125l-0.95157 0.0828c-0.164 0.025-0.29575 0.0511-0.39375 0.0781-0.042 0.098-0.0625 0.16794-0.0625 0.21094 0 0.074 0.1312 0.47693 0.3922 1.2109l0.61718 1.9266c0.019 0.061 0.0578 0.16 0.11875 0.3 0.192 0.023 0.366 0.0359 0.525 0.0359l0.44219-0.006 1.4984 0.0125c0.143 0 0.31368-0.0154 0.50468-0.0484 0.435-1.175 0.68076-1.8656 0.74376-2.0766 0.062-0.21 0.13687-0.43319 0.22187-0.66719 0.12-0.351 0.18125-0.56913 0.18125-0.65313 0-0.043-0.0132-0.10506-0.0422-0.18906-0.098-0.042-0.24338-0.0666-0.43438-0.0766l-0.73438-0.05c-0.047-0.005-0.0987-0.021-0.15468-0.05-0.023-0.06-0.0344-0.12306-0.0344-0.18906 0.042-0.022 0.0881-0.0366 0.13906-0.0406h0.15469c0.042 0 0.0926-0.003 0.15156-0.008 0.058-0.005 0.11531-0.008 0.17031-0.008l0.84844 0.0109 0.7-0.0172c0.601-0.013 1.0229-0.0203 1.2609-0.0203 0.061 0 0.16606 0.003 0.31406 0.008 0.014 0.046 0.0218 0.0807 0.0218 0.10468 0 0.027-0.009 0.0677-0.0282 0.11875-0.084 0.041-0.23288 0.0937-0.44688 0.15469-0.062 0.019-0.16774 0.0448-0.31874 0.0828-0.152 0.037-0.24107 0.0664-0.26407 0.0844-0.079 0.065-0.16537 0.19956-0.25937 0.40156-0.093 0.204-0.28851 0.74994-0.58751 1.6359l-0.56718 1.5625-1.0625 2.8797c-0.192 0.481-0.33005 0.84293-0.41405 1.0859-0.153 0.457-0.32969 0.88425-0.52969 1.2812l-0.24684 0.006zm33.328 0-0.20469-0.0125c-0.141-0.439-0.26138-0.79012-0.35938-1.0531-0.393-1.035-0.63918-1.6985-0.74218-1.9875l-0.65782-1.8422c-0.107-0.308-0.21993-0.60337-0.33593-0.88437-0.038-0.087-0.12944-0.33869-0.27344-0.75469-0.304-0.872-0.57731-1.548-0.82031-2.025-0.117-0.22-0.25832-0.37194-0.42032-0.46094-0.066-0.033-0.27749-0.0664-0.63749-0.0984-0.079-0.005-0.13419-0.008-0.16719-0.008h-0.16094c-0.051 0-0.11-0.0177-0.175-0.0547-0.018-0.057-0.0282-0.10237-0.0282-0.13437v-0.0406c0.178-0.014 0.32238-0.0219 0.43438-0.0219 0.069 0 0.18575 0.004 0.34375 0.0141 0.242 0.009 0.41293 0.0141 0.51093 0.0141 0.097 0 0.26263-0.005 0.49063-0.0141 0.495-0.024 0.92757-0.0344 1.3016-0.0344 0.112 0 0.2728 0.00025 0.4828 0.006 0.015 0.047 0.0218 0.0807 0.0218 0.10469 0 0.033-0.0256 0.0705-0.0766 0.1125l-0.95156 0.0828c-0.165 0.025-0.29575 0.0511-0.39375 0.0781-0.043 0.098-0.0625 0.16794-0.0625 0.21094 0 0.074 0.13119 0.47693 0.39219 1.2109l0.61719 1.9266c0.019 0.061 0.0562 0.16 0.11718 0.3 0.193 0.023 0.36913 0.0359 0.52813 0.0359l0.43906-0.006 1.5 0.0125c0.144 0 0.31268-0.0154 0.50468-0.0484 0.434-1.175 0.68076-1.8656 0.74376-2.0766 0.064-0.21 0.13731-0.43319 0.22031-0.66719 0.122-0.351 0.18281-0.56913 0.18281-0.65313 0-0.043-0.0136-0.10506-0.0406-0.18906-0.098-0.042-0.24237-0.0666-0.43437-0.0766l-0.73751-0.05c-0.045-0.005-0.0966-0.021-0.15156-0.05-0.024-0.06-0.0375-0.12306-0.0375-0.18906 0.043-0.022 0.0896-0.0366 0.14064-0.0406h0.15468c0.042 0 0.0926-0.003 0.15156-0.008 0.058-0.005 0.11532-0.008 0.17032-0.008l0.84844 0.0109 0.7-0.0172c0.601-0.013 1.0229-0.0203 1.2609-0.0203 0.061 0 0.16563 0.003 0.31563 0.008 0.013 0.046 0.0203 0.0807 0.0203 0.10468 0 0.027-0.009 0.0677-0.0282 0.11875-0.084 0.041-0.23388 0.0937-0.44688 0.15469-0.061 0.019-0.16887 0.0448-0.32187 0.0828-0.151 0.037-0.23694 0.0664-0.26094 0.0844-0.08 0.065-0.16637 0.19956-0.25937 0.40156-0.093 0.204-0.2885 0.74994-0.5875 1.6359l-0.56719 1.5625-1.0641 2.8797c-0.19 0.481-0.32794 0.84293-0.41094 1.0859-0.154 0.457-0.33181 0.88425-0.53281 1.2812l-0.24521 0.006zm18.281 0-0.20625-0.0125c-0.141-0.439-0.25982-0.79012-0.35782-1.0531-0.392-1.035-0.64018-1.6985-0.74218-1.9875l-0.65782-1.8422c-0.107-0.308-0.21993-0.60337-0.33593-0.88437-0.038-0.087-0.12944-0.33869-0.27344-0.75469-0.304-0.872-0.57831-1.548-0.82031-2.025-0.118-0.22-0.25732-0.37194-0.42032-0.46094-0.066-0.033-0.27693-0.0664-0.63593-0.0984-0.081-0.005-0.13676-0.008-0.16876-0.008h-0.16093c-0.051 0-0.11-0.0177-0.175-0.0547-0.019-0.057-0.0282-0.10237-0.0282-0.13437v-0.0406c0.178-0.014 0.32181-0.0219 0.43281-0.0219 0.07 0 0.18575 0.004 0.34375 0.0141 0.242 0.009 0.4135 0.0141 0.5125 0.0141 0.097 0 0.26163-0.005 0.49063-0.0141 0.495-0.024 0.92756-0.0344 1.3016-0.0344 0.113 0 0.27281 0.00025 0.4828 0.006 0.015 0.047 0.0203 0.0807 0.0203 0.10469 0 0.033-0.0246 0.0705-0.0766 0.1125l-0.95156 0.0828c-0.164 0.025-0.29418 0.0511-0.39219 0.0781-0.043 0.098-0.0641 0.16794-0.0641 0.21094 0 0.074 0.13275 0.47693 0.39375 1.2109l0.61563 1.9266c0.019 0.061 0.0593 0.16 0.12031 0.3 0.191 0.023 0.367 0.0359 0.525 0.0359l0.44062-0.006 1.5 0.0125c0.144 0 0.31112-0.0154 0.50312-0.0484 0.433-1.175 0.68288-1.8656 0.74688-2.0766 0.062-0.21 0.13576-0.43319 0.21875-0.66719 0.12101-0.351 0.18281-0.56913 0.18281-0.65313 0-0.043-0.0152-0.10506-0.0422-0.18906-0.098-0.042-0.24337-0.0666-0.43437-0.0766l-0.73594-0.05c-0.045-0.005-0.0977-0.021-0.15469-0.05-0.023-0.06-0.0359-0.12306-0.0359-0.18906 0.043-0.022 0.0922-0.0366 0.1422-0.0406h0.15468c0.042 0 0.09-0.003 0.15-0.008 0.058-0.005 0.11632-0.008 0.17032-0.008l0.84844 0.0109 0.7-0.0172c0.603-0.013 1.0239-0.0203 1.2609-0.0203 0.062 0 0.16507 0.003 0.31407 0.008 0.015 0.046 0.0218 0.0807 0.0218 0.10468 0 0.027-0.007 0.0677-0.0266 0.11875-0.085 0.041-0.23544 0.0937-0.44844 0.15469-0.06 0.019-0.16732 0.0448-0.32032 0.0828-0.151 0.037-0.2385 0.0664-0.2625 0.0844-0.079 0.065-0.16481 0.19956-0.25781 0.40156-0.094 0.204-0.2895 0.74994-0.5875 1.6359l-0.56875 1.5625-1.0625 2.8797c-0.192 0.481-0.3285 0.84293-0.4125 1.0859-0.154 0.457-0.33181 0.88425-0.53281 1.2812l-0.24371 0.006zm-130.03-0.17656-0.20626-0.0156c-0.141-0.438-0.25981-0.788-0.35781-1.05-0.392-1.037-0.64019-1.6991-0.74219-1.9891l-0.65781-1.8422c-0.107-0.308-0.21994-0.60182-0.33594-0.88282-0.038-0.088-0.12944-0.34025-0.27344-0.75625-0.304-0.872-0.57731-1.5474-0.82031-2.0234-0.117-0.22-0.25731-0.3745-0.42031-0.4625-0.065-0.033-0.2775-0.0664-0.6375-0.0984-0.079-0.005-0.13419-0.006-0.16719-0.006h-0.1625c-0.051 0-0.109-0.0192-0.175-0.0562-0.018-0.056-0.0266-0.10081-0.0266-0.13281v-0.0422c0.176-0.015 0.32138-0.0203 0.43438-0.0203 0.07 0 0.18318 0.002 0.34218 0.0125 0.242 0.009 0.4145 0.0141 0.5125 0.0141s0.26163-0.005 0.49063-0.0141c0.495-0.023 0.92756-0.0344 1.3016-0.0344 0.113 0 0.27281 0.001 0.48281 0.006 0.014 0.048 0.0219 0.0817 0.0219 0.10469 0 0.033-0.0256 0.0705-0.0766 0.1125l-0.95313 0.0844c-0.164 0.023-0.29419 0.0501-0.39219 0.0781-0.043 0.098-0.0641 0.16738-0.0641 0.20938 0 0.074 0.13275 0.47793 0.39375 1.2109l0.61719 1.9266c0.019 0.06 0.0577 0.16156 0.11875 0.30156 0.192 0.023 0.367 0.0344 0.525 0.0344l0.44062-0.006 1.5 0.014c0.144 0 0.31269-0.018 0.50469-0.05 0.434-1.174 0.68075-1.8666 0.74375-2.0766 0.063-0.211 0.13631-0.43319 0.22031-0.66719 0.122-0.349 0.18281-0.56912 0.18281-0.65312 0-0.042-0.0142-0.1035-0.0422-0.1875-0.098-0.042-0.24237-0.0691-0.43437-0.0781l-0.73438-0.0484c-0.046-0.005-0.0997-0.021-0.15469-0.05-0.024-0.06-0.0344-0.12406-0.0344-0.18906 0.042-0.022 0.0881-0.0372 0.13907-0.0422h0.15468c0.042 0 0.091-0.002 0.15-0.008 0.058-0.004 0.11588-0.008 0.17188-0.008l0.84844 0.0109 0.7-0.0156c0.602-0.014 1.0214-0.0219 1.2594-0.0219 0.062 0 0.16663 0.003 0.31563 0.008 0.014 0.047 0.0218 0.0817 0.0218 0.10469 0 0.029-0.0102 0.0677-0.0282 0.11875-0.084 0.042-0.23444 0.0937-0.44844 0.15469-0.061 0.019-0.16675 0.0464-0.31875 0.0844-0.152 0.037-0.2385 0.0644-0.2625 0.0844-0.079 0.065-0.16538 0.19912-0.25938 0.40312-0.093 0.203-0.29006 0.74638-0.58906 1.6344l-0.56563 1.5609-1.0641 2.8797c-0.191 0.482-0.3285 0.84294-0.4125 1.0859-0.154 0.458-0.33124 0.88425-0.53124 1.2812l-0.24532 0.008zm-16.277-0.0125c-0.864 0-1.5542-0.225-2.0672-0.675-0.514-0.45-0.77031-1.001-0.77031-1.65 0-0.36 0.0732-0.67587 0.21719-0.94687 0.196-0.349 0.49081-0.68075 0.88281-0.99375 0.242-0.191 0.76575-0.49607 1.5688-0.91407 0.803-0.417 1.3387-0.78231 1.6047-1.0953 0.266-0.313 0.39843-0.65794 0.39843-1.0359 0-0.276-0.0875-0.56056-0.2625-0.85156s-0.41812-0.51631-0.72812-0.67031c-0.311-0.153-0.64975-0.22969-1.0188-0.22969-0.602 0-1.1428 0.22669-1.6188 0.67969-0.481 0.453-0.74644 0.96506-0.79844 1.5391-0.009 0.084-0.0261 0.14244-0.0531 0.17344-0.025 0.029-0.0586 0.0438-0.10156 0.0438-0.051 0-0.0857-0.0164-0.10469-0.0484-0.024-0.037-0.0384-0.16537-0.0484-0.38437-0.004-0.356-0.0387-0.80738-0.10468-1.3594-0.009-0.078-0.0141-0.14531-0.0141-0.19531 0-0.085 0.0359-0.1635 0.11094-0.2375 0.075-0.076 0.28344-0.17531 0.62344-0.29531 0.58-0.202 1.1846-0.3 1.8156-0.3 0.723 0 1.3032 0.10925 1.7422 0.33125 0.44 0.222 0.78944 0.55218 1.0484 0.99218 0.259 0.439 0.38906 0.90994 0.38906 1.4109 0 0.396-0.0829 0.75613-0.24687 1.0781-0.163 0.323-0.40612 0.60556-0.72812 0.85156-0.323 0.245-0.85613 0.56087-1.6031 0.94687-0.981 0.502-1.5901 0.88025-1.8281 1.1312-0.238 0.253-0.35782 0.53138-0.35782 0.83438 0 0.397 0.16994 0.74475 0.51094 1.0438 0.341 0.299 0.77894 0.44844 1.3109 0.44844 0.513 0 0.94925-0.14944 1.3062-0.44844 0.357-0.299 0.60937-0.77513 0.75937-1.4281l0.0625-0.0141c0.028 0 0.0643 0.0101 0.10625 0.0281 0.015 0.075 0.0254 0.24493 0.0344 0.51093l0.0281 0.62344c0 0.046-0.0192 0.22325-0.0562 0.53125-0.26601 0.192-0.52557 0.33006-0.77657 0.41406-0.346 0.107-0.75581 0.16094-1.2328 0.16094zm42.328 0c-0.865 0-1.5516-0.225-2.0656-0.675-0.513-0.45-0.77188-1.001-0.77188-1.65 0-0.36 0.0738-0.67587 0.21875-0.94687 0.196-0.349 0.48925-0.68075 0.88125-0.99375 0.242-0.191 0.76475-0.49607 1.5688-0.91407 0.803-0.417 1.3377-0.78231 1.6047-1.0953 0.266-0.313 0.39844-0.65794 0.39844-1.0359 0-0.276-0.0875-0.56056-0.2625-0.85156-0.176-0.291-0.41712-0.51631-0.72812-0.67031-0.31-0.153-0.65075-0.22969-1.0188-0.22969-0.602 0-1.1428 0.22669-1.6188 0.67969-0.481 0.453-0.74687 0.96506-0.79687 1.5391-0.01 0.084-0.0271 0.14244-0.0531 0.17344-0.026 0.029-0.0595 0.0438-0.10156 0.0438-0.052 0-0.0867-0.0164-0.10469-0.0484-0.024-0.037-0.04-0.16537-0.05-0.38437-0.004-0.356-0.0397-0.80738-0.10468-1.3594-0.01-0.078-0.0141-0.14531-0.0141-0.19531 0-0.085 0.0365-0.1635 0.1125-0.2375 0.074-0.076 0.28243-0.17531 0.62343-0.29531 0.578-0.202 1.1841-0.3 1.8141-0.3 0.724 0 1.3048 0.10925 1.7438 0.33125 0.438 0.222 0.78787 0.55218 1.0469 0.99218 0.259 0.439 0.3875 0.90994 0.3875 1.4109 0 0.396-0.0807 0.75613-0.24375 1.0781-0.164 0.323-0.40769 0.60556-0.72969 0.85156-0.322 0.245-0.85612 0.56087-1.6031 0.94687-0.98 0.502-1.5891 0.88025-1.8281 1.1312-0.238 0.253-0.35782 0.53138-0.35782 0.83438 0 0.397 0.1715 0.74475 0.5125 1.0438 0.34 0.299 0.77738 0.44844 1.3094 0.44844 0.513 0 0.94925-0.14944 1.3062-0.44844 0.358-0.299 0.60937-0.77513 0.75937-1.4281l0.0625-0.0141c0.028 0 0.0642 0.0101 0.10626 0.0281 0.013 0.075 0.0254 0.24493 0.0344 0.51093l0.0282 0.62344c0 0.046-0.0193 0.22325-0.0562 0.53125-0.267 0.192-0.52457 0.33006-0.77656 0.41406-0.346 0.107-0.75682 0.16094-1.2328 0.16094zm95.905-0.0344c-0.709 0-1.2599-0.0436-1.6469-0.12657-0.55099-0.126-1.0506-0.34231-1.5016-0.64531-0.45-0.304-0.84143-0.68262-1.1734-1.1406-0.331-0.457-0.57537-0.90969-0.73437-1.3547-0.159-0.446-0.23907-0.96819-0.23907-1.5672 0-0.63 0.1-1.2113 0.3-1.7453 0.201-0.535 0.46519-0.97713 0.79219-1.3281 0.327-0.35 0.70706-0.63075 1.1391-0.84375 0.432-0.212 0.83087-0.37031 1.1969-0.47031 0.367-0.101 0.91926-0.15 1.6563-0.15 0.916 0 1.6477 0.0937 2.1937 0.27969 0.111 0.038 0.20413 0.0664 0.27813 0.0844 0.089 0.29 0.23269 0.82819 0.42969 1.6172 0.004 0.034 0.008 0.10619 0.0125 0.21719-0.046 0.028-0.0817 0.0437-0.10468 0.0437l-0.086-0.0297c-0.148-0.321-0.32862-0.60487-0.54062-0.84687-0.212-0.243-0.42956-0.43007-0.65156-0.56407-0.222-0.133-0.50275-0.24731-0.84375-0.34531-0.136-0.042-0.39007-0.0864-0.76407-0.13437l-0.32968-0.008c-0.538 0-1.0689 0.14018-1.5969 0.41718-0.528 0.279-0.94387 0.74275-1.2469 1.3938-0.303 0.652-0.45469 1.4781-0.45469 2.4781 0 0.522 0.0642 1.0339 0.19219 1.5359 0.127 0.502 0.30288 0.92925 0.52188 1.2812 0.221 0.352 0.48825 0.65593 0.80625 0.91093 0.317 0.254 0.68624 0.455 1.1062 0.6 0.239 0.079 0.53 0.11875 0.875 0.11875 0.654 0 1.2029-0.14662 1.6469-0.44062 0.442-0.294 0.76281-0.7155 0.95781-1.2625 0.052-0.009 0.0903-0.0141 0.12031-0.0141 0.032 0 0.0809 0.008 0.14688 0.0203 0.004 0.126 0.008 0.22812 0.008 0.30312 0 0.378-0.0274 0.74469-0.0844 1.1047-0.154 0.131-0.46018 0.26669-0.91718 0.40469-0.459 0.136-0.94507 0.20625-1.4641 0.20625zm-156.99-0.0703-0.25781-0.006h-0.49844c-0.042 0-0.11644-0.0119-0.22344-0.0359 0.009-0.098 0.0346-0.164 0.0766-0.2 0.042-0.035 0.159-0.0726 0.35-0.11563 0.462-0.098 0.74669-0.20487 0.85469-0.32187 0.074-0.08 0.1125-0.24825 0.1125-0.50625l0.0219-2.2781-0.0141-0.90156 0.0141-0.49219-0.0141-0.66719v-1.1062c0-1.052-0.0641-1.7055-0.18906-1.9625-0.164-0.121-0.41275-0.20206-0.74375-0.23906-0.229-0.023-0.43013-0.0719-0.60313-0.14687l-0.0125-0.10469c0-0.028 0.004-0.0536 0.0125-0.0766l0.0156-0.0578 2.8562 0.0578c0.029 0.005 0.0541 0.006 0.0781 0.006 0.149 0 0.28932-0.009 0.42032-0.0281 0.331-0.032 0.76106-0.0484 1.2891-0.0484 0.798 0 1.3504 0.0274 1.6594 0.0844 0.747 0.144 1.3022 0.31506 1.6672 0.51406 0.364 0.199 0.72313 0.49462 1.0781 0.89062 0.355 0.393 0.63169 0.85932 0.82969 1.3953 0.199 0.537 0.29843 1.079 0.29843 1.625 0 0.612-0.0903 1.163-0.27031 1.65-0.18 0.488-0.44419 0.93912-0.79219 1.3531-0.347 0.413-0.68675 0.71425-1.0188 0.90625-0.532 0.303-1.048 0.51244-1.55 0.62344s-1.035 0.16875-1.6 0.16875c-0.28 0-0.7435-0.0198-1.3875-0.0578-0.243-0.013-0.42994-0.0188-0.56094-0.0188-0.453 0-0.89443 0.0126-1.3234 0.0406-0.21 0.038-0.402 0.0563-0.575 0.0563zm171.18 0-0.25938-0.006h-0.49687c-0.043 0-0.118-0.0119-0.225-0.0359 0.009-0.098 0.0361-0.164 0.0781-0.2 0.042-0.035 0.15744-0.0726 0.34844-0.11563 0.463-0.098 0.74925-0.20487 0.85625-0.32187 0.074-0.08 0.11093-0.24825 0.11093-0.50625l0.0203-2.2781-0.0125-0.90156 0.0125-0.49219-0.0125-0.66719v-1.1062c0-1.052-0.0635-1.7055-0.18749-1.9625-0.165-0.121-0.41332-0.20206-0.74531-0.23906-0.229-0.023-0.42913-0.0719-0.60313-0.14688l-0.0125-0.10468c0-0.028 0.003-0.0536 0.0125-0.0766l0.0156-0.0578 2.8578 0.0578c0.027 0.005 0.0526 0.006 0.0766 0.006 0.149 0 0.29088-0.009 0.42188-0.0281 0.331-0.032 0.75906-0.0484 1.2891-0.0484 0.797 0 1.3502 0.0274 1.6562 0.0844 0.748 0.144 1.3048 0.31507 1.6688 0.51407 0.365 0.199 0.72313 0.49462 1.0781 0.89062 0.355 0.393 0.63169 0.85932 0.82969 1.3953 0.199 0.537 0.29843 1.079 0.29843 1.625 0 0.612-0.0897 1.163-0.26875 1.65-0.179 0.488-0.44519 0.93912-0.79219 1.3531-0.348 0.413-0.68675 0.71425-1.0188 0.90625-0.533 0.303-1.0496 0.51244-1.5516 0.62344-0.503 0.111-1.0366 0.16875-1.6016 0.16875-0.28 0-0.74194-0.0198-1.3859-0.0578-0.243-0.013-0.42994-0.0188-0.56094-0.0188-0.453 0-0.89443 0.0126-1.3234 0.0406-0.211 0.038-0.40144 0.0563-0.57344 0.0563zm-37.777-0.0781-0.36251-0.006c-0.005-0.033-0.008-0.0626-0.008-0.0906 0-0.036 0.0154-0.0846 0.0484-0.14062 0.055-0.009 0.10082-0.0143 0.13282-0.0203 0.481-0.046 0.7935-0.11919 0.9375-0.21719 0.089-0.061 0.13594-0.1405 0.13594-0.2375 0-0.043-0.006-0.0823-0.0156-0.12031-0.018-0.075-0.0782-0.192-0.18125-0.35l-1.1654-1.7453-1.0109-1.4516c-0.122-0.173-0.21806-0.30419-0.28906-0.39219l-1.0641 1.6125c-0.108 0.154-0.21038 0.31482-0.30938 0.48282-0.247 0.421-0.48 0.78531-0.7 1.0953-0.154 0.209-0.27831 0.39412-0.37031 0.55312-0.052 0.075-0.0895 0.12919-0.1125 0.16719-0.065 0.093-0.0984 0.17081-0.0984 0.23281 0 0.055 0.037 0.10938 0.11094 0.15938 0.099 0.072 0.2285 0.10469 0.3875 0.10469l0.20469-0.006 0.39531 0.006h0.0766l0.17656 0.0828v0.0781c0 0.042-0.0164 0.0823-0.0484 0.12032-0.108 0.02-0.21993 0.0281-0.33593 0.0281l-0.81876-0.0141c-0.421 0-0.94937 0.0125-1.5844 0.0375-0.411 0.013-0.678 0.0172-0.8 0.0172h-0.33438l0.0203-0.3c0.075-0.01 0.13019-0.0141 0.16719-0.0141 0.355-0.032 0.57819-0.0781 0.66719-0.13906 0.2-0.134 0.43681-0.39975 0.70781-0.79375l1.5609-2.275 0.91718-1.3938c0.168-0.253 0.26688-0.42812 0.29688-0.52812 0.031-0.101 0.0469-0.37725 0.0469-0.83125 0-1.213-0.003-1.8629-0.008-1.9469-0.014-0.116-0.0493-0.20237-0.10624-0.25937-0.037-0.037-0.21156-0.10794-0.52656-0.21094l-0.90782-0.1375c-0.033-0.005-0.0649-0.022-0.0969-0.05-0.015-0.042-0.0203-0.0764-0.0203-0.0984 0-0.024 0.007-0.0621 0.0266-0.11406 0.112-0.003 0.21637-0.005 0.30937-0.005h0.98125l1.2 0.0625 1.7953-0.0766c0.033 0.078 0.0485 0.14288 0.0485 0.19688v0.0844c-0.84489 0.083-1.3293 0.15565-1.4483 0.21565-0.048 0.028-0.0835 0.10707-0.1125 0.23907-0.051 0.262-0.0766 1.12-0.0766 2.575 0 0.37 0.0256 0.64612 0.0766 0.82812 0.024 0.074 0.0952 0.191 0.21719 0.35 0.065 0.084 0.15081 0.21294 0.25781 0.38594 0.332 0.527 0.73875 1.1138 1.2188 1.7578 0.482 0.644 1.0661 1.3291 1.7531 2.0531 0.055 0.042 0.13169 0.0812 0.22969 0.11718 0.06 0.004 0.10638 0.0101 0.13438 0.0141l0.16718 0.0219c0.07 0.006 0.12169 0.0113 0.15469 0.0203l0.0187 0.24688c-0.168 0.003-0.26475 0.005-0.29375 0.005l-1.0562-0.0188-1.3172 0.0328zm-62.533-0.006c-0.041 0-0.10225-0.0132-0.18125-0.0422-0.033-0.061-0.05-0.103-0.05-0.125 0-0.038 0.0249-0.0919 0.0718-0.16094 0.731-0.08 1.2651-0.155 1.6031-0.225v-0.18125c0-0.313-0.0396-1.0989-0.11562-2.3609-0.095-1.653-0.16326-2.9779-0.20626-3.9719-0.033-0.763-0.0847-1.2306-0.15468-1.4016-0.019-0.042-0.0474-0.0761-0.0844-0.10313-0.056-0.038-0.231-0.0641-0.525-0.0781-0.379-0.042-0.63938-0.11193-0.78438-0.21093l0.008-0.18907c0.35 0.005 0.61669 0.0146 0.80469 0.0266 0.335 0.02 0.58106 0.0312 0.73906 0.0312l2.175-0.0781c0.023 0.057 0.0359 0.0994 0.0359 0.12344 0 0.034-0.0164 0.0852-0.0484 0.15625-0.169 0.029-0.34581 0.0422-0.53281 0.0422-0.486 0.009-0.78669 0.0527-0.90469 0.12969-0.117 0.077-0.18412 0.19356-0.20312 0.35156-0.066 0.554-0.0969 1.0533-0.0969 1.4953 0 1.415 0.0307 2.7089 0.0937 3.8859 0.048 0.967 0.0901 1.5496 0.12812 1.7516 0.295-0.518 0.80806-1.5878 1.5391-3.2078 0.732-1.62 1.3632-3.2012 1.8922-4.7422l0.16249-0.008c0.042 0.108 0.0944 0.25518 0.15938 0.44218 0.149 0.406 0.33006 0.873 0.53906 1.4l0.47969 1.15 0.37031 0.94532 1.0328 2.4516 0.0141 0.0422 0.10313 0.26562c0.233 0.547 0.38918 0.90106 0.46718 1.0641 0.038-0.388 0.0578-0.95893 0.0578-1.7109 0-0.949-0.008-1.6321-0.025-2.0531-0.016-0.42-0.025-0.7085-0.025-0.8625l0.0203-1.4156c0-0.547-0.0215-0.90894-0.0625-1.0859-0.13601-0.09-0.34975-0.17469-0.64375-0.25469-0.266-0.023-0.47625-0.0673-0.63126-0.13125-0.013-0.047-0.0203-0.0924-0.0203-0.13437v-0.0906c0.037-0.019 0.0717-0.0281 0.10469-0.0281 0.051 0 0.17362 0.007 0.36562 0.0234 0.31301 0.021 0.94882 0.0328 1.9078 0.0328 0.023 0 0.19731-0.008 0.52031-0.0234 0.322-0.018 0.61988-0.0266 0.89688-0.0266h0.32187c0.005 0.052 0.009 0.10019 0.009 0.14219 0 0.037-0.017 0.0661-0.05 0.0891-0.57 0.089-0.98081 0.17638-1.2328 0.25938-0.155 0.057-0.24769 0.11668-0.27969 0.17968-0.033 0.063-0.05 0.26807-0.05 0.61407l-0.008 0.88125 0.008 1.3734c-0.0373 1.653-0.0565 2.8297-0.0565 3.5297l0.008 0.33594-0.008 0.32031c0.023 0.366 0.0513 0.58031 0.0812 0.64531 0.03 0.066 0.10106 0.11994 0.21406 0.16094 0.112 0.043 0.37406 0.0754 0.78906 0.0984 0.211 0.01 0.39163 0.0544 0.54063 0.13437 0.013 0.055 0.0218 0.0983 0.0218 0.13125 0 0.024-0.005 0.0631-0.0141 0.11407-0.234-0.009-0.53444-0.0141-0.89844-0.0141-0.59 0-1.0177 0.005-1.2797 0.0187-0.117 0.015-0.2125 0.0219-0.2875 0.0219-0.066 0-0.14281-0.0172-0.23281-0.0562-0.046-0.107-0.20063-0.53469-0.46563-1.2797-0.066-0.188-0.15337-0.41244-0.25937-0.67344-0.265-0.649-0.41613-1.0233-0.45313-1.1203-0.038-0.098-0.0767-0.18819-0.11874-0.26719-0.033-0.061-0.0604-0.12912-0.0844-0.20312-0.358-0.998-0.85926-2.14-1.5063-3.425l-0.82656 1.8406-1.9828 4.3844-0.29376 0.65781c-0.024 0.042-0.0588 0.0879-0.10781 0.13594-0.097 0.028-0.18281 0.0422-0.25781 0.0422-0.028 0-0.15357-0.009-0.37657-0.025-0.318-0.021-0.54187-0.0328-0.67187-0.0328-0.4 0-0.71575 0.017-0.94375 0.05-0.126 0.019-0.20731 0.0281-0.24531 0.0281zm51.267 0-1.8422-0.0203h-0.575c-0.092 0-0.19187-0.008-0.29687-0.0187-0.106-0.012-0.16919-0.0156-0.19219-0.0156-0.168-0.005-0.27587-0.0293-0.32187-0.0703-0.015-0.052-0.0218-0.0961-0.0218-0.12813 0-0.052 0.0182-0.0879 0.0562-0.11093 0.037-0.024 0.23631-0.0588 0.59531-0.10782 0.359-0.049 0.58175-0.133 0.66875-0.25 0.087-0.116 0.12843-0.43987 0.12343-0.97187l-0.008-1.2594 0.008-1.7578-0.0141-0.94375 0.0203-0.83281c0-0.196-0.005-0.39756-0.0141-0.60156-0.038-0.729-0.0562-1.1496-0.0562-1.2656v-0.0781c-0.052-0.117-0.10719-0.18694-0.16719-0.21094-0.088-0.033-0.471-0.0882-1.15-0.16718-0.065-0.057-0.0984-0.10488-0.0984-0.14688l0.0156-0.0703 0.13906-0.0281c0.381 0.014 0.59394 0.0203 0.63593 0.0203l0.93126-0.006 0.95 0.0141c0.056 0 0.12718-0.003 0.21718-0.008 0.172-0.01 0.46751-0.0141 0.88751-0.0141 0.051 0 0.13962 0.0129 0.26562 0.0359 0 0.08-0.0193 0.14306-0.0562 0.18906l-0.2875 0.0703c-0.433 0.108-0.6965 0.18763-0.7875 0.24063-0.091 0.054-0.15519 0.12706-0.19219 0.21406-0.042 0.159-0.0602 0.28188-0.0562 0.37188v2.3953c0 0.463 0.007 0.76719 0.0203 0.91719l0.19687-0.006 0.59531 0.006c0.149 0 0.27095-0.0254 0.36095-0.0734 0.091-0.05 0.20687-0.17275 0.34687-0.36875l1.0359-1.8938c0.449-0.763 0.83776-1.4624 1.1688-2.0984 0.108-0.009 0.19312-0.0125 0.25312-0.0125 0.859 0 1.6079 0.004 2.2469 0.0125 0.005 0.042 0.009 0.0783 0.009 0.10625 0 0.029-0.004 0.0649-0.009 0.11094-0.457 0.084-0.78256 0.17419-0.97656 0.26719-0.194 0.094-0.3572 0.21168-0.4922 0.35468-0.136 0.142-0.38093 0.49525-0.73593 1.0562l-0.88907 1.525c-0.285 0.471-0.50606 0.87494-0.66406 1.2109 0.088 0.061 0.2105 0.13038 0.3625 0.20938 0.901 0.453 1.3516 1.1098 1.3516 1.9688 0 0.453-0.12431 0.86368-0.37031 1.2297-0.248 0.366-0.58044 0.62569-0.99844 0.77969s-1.148 0.23125-2.189 0.23125zm68.231 0c-0.042 0-0.10125-0.0132-0.18125-0.0422-0.032-0.061-0.0484-0.103-0.0484-0.125 0-0.038 0.0249-0.0919 0.0718-0.16094 0.73-0.08 1.2646-0.155 1.6016-0.225v-0.18125c0-0.313-0.039-1.0989-0.11406-2.3609-0.094-1.653-0.16482-2.9779-0.20782-3.9719-0.033-0.763-0.0837-1.2306-0.15469-1.4016-0.018-0.042-0.0458-0.0761-0.0828-0.10313-0.056-0.038-0.232-0.0641-0.525-0.0781-0.379-0.042-0.64038-0.11193-0.78438-0.21093l0.005-0.18907c0.35 0.005 0.61925 0.0146 0.80625 0.0266 0.335 0.02 0.58162 0.0312 0.74062 0.0312l2.175-0.0781c0.023 0.057 0.0344 0.0994 0.0344 0.12344 0 0.034-0.0165 0.0852-0.0484 0.15625-0.168 0.029-0.34581 0.0422-0.53281 0.0422-0.485 0.009-0.78556 0.0527-0.90156 0.12969-0.118 0.077-0.18669 0.19356-0.20468 0.35156-0.065 0.554-0.0969 1.0533-0.0969 1.4953 0 1.415 0.0302 2.7089 0.0922 3.8859 0.048 0.967 0.0917 1.5496 0.12968 1.7516 0.295-0.518 0.80706-1.5878 1.5391-3.2078 0.733-1.62 1.3626-3.2012 1.8906-4.7422l0.16406-0.008c0.041 0.108 0.0944 0.25518 0.15938 0.44218 0.148 0.406 0.3285 0.873 0.5375 1.4l0.47969 1.15 0.37187 0.94532 1.0312 2.4516 0.0141 0.0422 0.10469 0.26562c0.232 0.547 0.38818 0.90106 0.46718 1.0641 0.038-0.388 0.0562-0.95893 0.0562-1.7109 0-0.949-0.007-1.6321-0.025-2.0531-0.016-0.42-0.0234-0.7085-0.0234-0.8625l0.0203-1.4156c0-0.547-0.021-0.90894-0.0641-1.0859-0.135-0.09-0.34975-0.17469-0.64375-0.25469-0.265-0.023-0.47525-0.0673-0.63125-0.13125-0.012-0.047-0.0187-0.0924-0.0187-0.13437v-0.0906c0.036-0.019 0.0707-0.0281 0.10469-0.0281 0.052 0 0.17306 0.007 0.36406 0.0234 0.313 0.021 0.94982 0.0328 1.9078 0.0328 0.024 0 0.19731-0.008 0.52031-0.0234 0.322-0.018 0.62287-0.0266 0.89687-0.0266h0.32188c0.006 0.052 0.009 0.10019 0.009 0.14219 0 0.037-0.018 0.0661-0.05 0.0891-0.57 0.089-0.97981 0.17638-1.2328 0.25938-0.154 0.057-0.24568 0.11668-0.27968 0.17968-0.033 0.063-0.0484 0.26807-0.0484 0.61407l-0.008 0.88125 0.008 1.3734c-0.037 1.653-0.0562 2.8297-0.0562 3.5297l0.006 0.33594-0.006 0.32031c0.024 0.366 0.0497 0.58031 0.0797 0.64531 0.03 0.066 0.10106 0.11994 0.21406 0.16094 0.111 0.043 0.37662 0.0754 0.79062 0.0984 0.21 0.01 0.39163 0.0544 0.54063 0.13437 0.013 0.055 0.0203 0.0982 0.0203 0.13125 0 0.024-0.005 0.0631-0.0141 0.11407-0.235-0.009-0.53343-0.0141-0.89843-0.0141-0.589 0-1.0146 0.005-1.2766 0.0188-0.118 0.015-0.21463 0.0219-0.29063 0.0219-0.065 0-0.1428-0.0172-0.2328-0.0562-0.045-0.107-0.20064-0.53469-0.46564-1.2797-0.066-0.188-0.15236-0.41244-0.25936-0.67344-0.265-0.649-0.41557-1.0233-0.45157-1.1203-0.038-0.098-0.0783-0.18819-0.12031-0.26719-0.033-0.061-0.0598-0.12912-0.0828-0.20312-0.358-0.998-0.86182-2.14-1.5078-3.425l-0.82656 1.8406-1.9828 4.3844-0.29219 0.65781c-0.025 0.042-0.0618 0.0879-0.10781 0.13594-0.099 0.028-0.18438 0.0422-0.25938 0.0422-0.027 0-0.15256-0.009-0.37656-0.025-0.317-0.021-0.54031-0.0328-0.67031-0.0328-0.401 0-0.71675 0.017-0.94375 0.05-0.126 0.019-0.20888 0.0281-0.24688 0.0281zm18.558-0.0141-0.3625-0.008c-0.006-0.032-0.008-0.0626-0.008-0.0906 0-0.037 0.0164-0.0841 0.0484-0.13906 0.056-0.01 0.10138-0.0169 0.13438-0.0219 0.481-0.045 0.7935-0.11819 0.9375-0.21719 0.088-0.06 0.13437-0.1395 0.13437-0.2375 0-0.041-0.005-0.0812-0.0141-0.11718-0.018-0.076-0.0804-0.19257-0.18437-0.35157l-1.1641-1.7406-1.0109-1.4469c-0.122-0.173-0.21706-0.30418-0.28906-0.39218l-1.0641 1.6078c-0.106 0.155-0.20882 0.31481-0.30782 0.48281-0.247 0.42-0.481 0.78363-0.7 1.0906-0.155 0.211-0.27843 0.39568-0.37343 0.55468-0.051 0.074-0.0885 0.12919-0.11251 0.16719-0.065 0.093-0.0953 0.16869-0.0953 0.22969 0 0.057 0.037 0.10837 0.11094 0.15937 0.099 0.071 0.2265 0.10469 0.3875 0.10469l0.20312-0.006 0.39375 0.006h0.0797l0.175 0.0844v0.0766c0 0.043-0.0154 0.0823-0.0484 0.12031-0.106 0.017-0.21993 0.0266-0.33593 0.0266l-0.82031-0.0141c-0.421 0-0.94781 0.0141-1.5828 0.0391-0.41 0.013-0.67644 0.0172-0.79844 0.0172h-0.33594l0.0218-0.29844c0.073-0.01 0.13019-0.0156 0.16719-0.0156 0.354-0.032 0.57563-0.0791 0.66563-0.13906 0.201-0.134 0.43781-0.39707 0.70781-0.78907l1.5609-2.2719 0.91719-1.3906c0.169-0.251 0.26744-0.42656 0.29844-0.52656 0.03-0.101 0.0453-0.37612 0.0453-0.82812 0-1.212-0.003-1.8592-0.008-1.9422-0.013-0.117-0.0487-0.20238-0.10468-0.25938-0.037-0.037-0.21256-0.10637-0.52656-0.20937l-0.90782-0.13906c-0.032-0.005-0.0664-0.0204-0.0984-0.0484-0.015-0.042-0.0219-0.0754-0.0219-0.0984 0-0.024 0.0102-0.0605 0.0282-0.1125 0.112-0.003 0.21537-0.006 0.30937-0.006h0.98281l1.1984 0.0625 1.7969-0.0766c0.032 0.077 0.0484 0.14188 0.0484 0.19688v0.0828c-0.844 0.084-1.33 0.15619-1.45 0.21719-0.047 0.027-0.0835 0.10594-0.1125 0.23594-0.051 0.261-0.0766 1.1193-0.0766 2.5703 0 0.369 0.0255 0.643 0.0766 0.825 0.024 0.075 0.0968 0.191 0.21875 0.35 0.065 0.084 0.14982 0.21237 0.25782 0.38437 0.331 0.526 0.73875 1.1117 1.2188 1.7547 0.48 0.643 1.0646 1.3249 1.7516 2.0469 0.055 0.042 0.13325 0.0817 0.23125 0.11875 0.06 0.004 0.10581 0.009 0.13281 0.0141l0.16875 0.0203c0.069 0.006 0.12113 0.0129 0.15313 0.0219l0.0218 0.24375c-0.168 0.005-0.26832 0.006-0.29532 0.006l-1.0562-0.0203-1.3188 0.0359zm-247.58-0.006c-0.178 0-0.35707-0.009-0.53907-0.0281 0.004-0.07 0.0166-0.13812 0.0406-0.20312 0.508-0.103 0.85494-0.21857 1.0359-0.35157 0.084-0.06 0.15031-0.15143 0.19531-0.27343 0.043-0.121 0.0811-0.51988 0.11406-1.1969l0.10469-2.0125c0-0.038-0.004-0.16525-0.0141-0.38125-0.009-0.218-0.0125-0.36406-0.0125-0.43906v-0.20313c0.013-0.35 0.0203-0.53793 0.0203-0.56093 0-0.823-0.0926-1.4356-0.27656-1.8406-0.185-0.405-0.48794-0.71944-0.91094-0.94844-0.422-0.229-1.031-0.34375-1.825-0.34375-0.355 0-0.72031 0.0649-1.0953 0.19688-0.376 0.129-0.65775 0.29531-0.84375 0.49531-0.187 0.201-0.32 0.45775-0.4 0.76875-0.079 0.312-0.121 1.0999-0.125 2.3719l-0.02188 3.4719 0.06875 0.79844c0.019 0.083 0.07225 0.15156 0.15625 0.20156 0.126 0.085 0.29594 0.12656 0.51094 0.12656 0.046 0 0.10894-0.004 0.18594-0.0109 0.076-0.006 0.13206-0.009 0.16406-0.009 0.075 0 0.17275 0.0164 0.29375 0.0484 0.014 0.057 0.0203 0.0986 0.0203 0.12656 0 0.041-0.0114 0.10281-0.0344 0.18281l-1.8422-0.0219h-1.1078l-0.46875-0.006h-0.18125c-0.075 0-0.13806-0.0192-0.18906-0.0563-0.028-0.024-0.04219-0.0574-0.04219-0.0984 0-0.033 0.0063-0.0689 0.02031-0.11094 0.084-0.066 0.28106-0.1 0.58906-0.1l0.4125 0.008c0.098 0 0.173-0.0375 0.225-0.1125 0.074-0.106 0.1125-0.29619 0.1125-0.56719v-1.0672l-0.02187-1.5828 0.02187-1.9625v-0.48281c0-0.664 0.08131-1.1696 0.24531-1.5156 0.121-0.261 0.34081-0.52337 0.65781-0.78437 0.318-0.263 0.74425-0.47507 1.2813-0.63907 0.294-0.093 0.77575-0.13906 1.4438-0.13906 0.425 0 0.85518 0.0709 1.2922 0.21094 0.436 0.14 0.78488 0.31737 1.0469 0.53437 0.262 0.218 0.46044 0.46182 0.59844 0.73282s0.24575 0.63856 0.31875 1.1016c0.052 0.332 0.0766 0.95431 0.0766 1.8703l-0.0203 0.72969 0.006 0.575-0.0484 1.4516c-0.019 0.486-0.0281 0.80088-0.0281 0.94688 0 0.271 0.0557 0.45625 0.16875 0.55625 0.112 0.1 0.45412 0.1885 1.0281 0.2625l0.008 0.25312-0.21718 0.006-1.1062-0.0359c-0.028 0-0.19669 0.0129-0.50469 0.0359-0.206 0.014-0.4005 0.0219-0.5875 0.0219zm10.73 0c-0.121 0-0.24587-0.0198-0.37187-0.0578-0.032-0.065-0.0525-0.13537-0.0625-0.20937 0.037-0.065 0.0755-0.10475 0.1125-0.11875s0.16031-0.0254 0.37031-0.0344c0.178-0.024 0.30875-0.0388 0.39375-0.0438 0.354-0.064 0.55175-0.1285 0.59375-0.1875 0.061-0.085 0.0922-0.38287 0.0922-0.89687 0-0.285 0.0154-0.61463 0.0484-0.99063s0.0512-0.63218 0.0562-0.76718c0.033-0.989 0.0484-1.5814 0.0484-1.7734v-0.3l0.0141-0.65781-0.0281-0.42032c0-0.038 0.0142-0.38168 0.0422-1.0297l-0.006-0.1125c-0.257 0.27-0.46825 0.49768-0.63125 0.67968l-1.675 1.8562c-0.709 0.784-1.1857 1.3009-1.4297 1.5469-0.246 0.249-0.51819 0.54744-0.81719 0.89844l-0.21093 0.25156-1.4766 1.6312c-0.047 0.052-0.0896 0.0986-0.12656 0.14062-0.169 0.21-0.35087 0.39538-0.54687 0.55938-0.084 0.006-0.14707 0.008-0.18907 0.008-0.051 0-0.14087-0.008-0.27187-0.0219-0.337-0.038-0.86763-0.0547-1.5906-0.0547l0.008-0.3375c0.084-0.023 0.26925-0.0498 0.55625-0.0828s0.51888-0.11307 0.69688-0.23907c0.088-0.065 0.147-0.13943 0.175-0.22343 0.052-0.159 0.0806-0.68175 0.0906-1.5688l0.0141-1.9906v-0.95312c0.015-0.769 0.0219-1.2991 0.0219-1.5891 0-0.621-0.0271-1.0926-0.0781-1.4156-0.056-0.065-0.12762-0.11388-0.21562-0.14688-0.136-0.05-0.35132-0.0971-0.64532-0.13906l-0.32968-0.05-0.18125-0.0844 0.006-0.20938c0.079-0.009 0.14081-0.0141 0.18281-0.0141l0.0969 0.006c0.355 0.025 0.76737 0.0375 1.2344 0.0375 0.663 0 1.2249-0.0192 1.6859-0.0563 0.075-0.01 0.13962-0.0156 0.19062-0.0156 0.047 0 0.10625 0.0114 0.18125 0.0344l0.008 0.26718c-0.023 0.014-0.0514 0.0351-0.0844 0.0641-0.43 0.084-0.86538 0.1465-1.3094 0.1875l-0.24531 0.0563c-0.019 0.182-0.0309 0.37118-0.0359 0.56718l-0.0485 2.3203c-0.047 1.601-0.0703 2.8556-0.0703 3.7656l0.0219 0.23907c0.122-0.089 0.21594-0.16807 0.28594-0.23907 0.07-0.069 0.23925-0.26043 0.50625-0.57343 0.425-0.495 0.74563-0.85919 0.96563-1.0922 0.812-0.868 1.4754-1.5929 1.9844-2.1719 0.032-0.031 0.0821-0.0841 0.15313-0.15312 0.07-0.07 0.22068-0.23463 0.45468-0.49063l0.60313-0.69375c0.079-0.092 0.23069-0.25381 0.45469-0.48281 0.962-0.989 1.5251-1.5781 1.6891-1.7641l0.32656 0.0281c0.019 0.513 0.0281 0.846 0.0281 1 0 0.711-0.0126 1.5468-0.0406 2.5078l-0.0438 1.4078 0.008 0.29531-0.0562 1.0156-0.0766 2.2125c0 0.125 0.0558 0.25087 0.16875 0.37187 0.032 0.038 0.132 0.0818 0.3 0.13282 0.112 0.033 0.23306 0.0514 0.36406 0.0594 0.13 0.007 0.23281 0.0258 0.30781 0.0578l0.0141 0.21875h-0.11876c-0.099 0-0.27424-0.01-0.53124-0.0297-0.454-0.027-0.78913-0.0406-1.0031-0.0406-0.155 0-0.32787 0.0164-0.52187 0.0484-0.193 0.032-0.35494 0.05-0.48594 0.05zm8.9547-0.003c-0.158 0-0.26037-0.0313-0.30937-0.0953-0.048-0.064-0.0719-0.19588-0.0719-0.39688 0-0.207-0.0357-0.46781-0.10469-0.78281-0.055-0.244-0.0828-0.41369-0.0828-0.50469 0-0.115 0.0404-0.17468 0.12343-0.17968 0.083-0.004 0.1465 0.0811 0.1875 0.25312 0.092 0.395 0.22263 0.66325 0.39063 0.80625 0.168 0.144 0.44106 0.21563 0.81406 0.21563h1.8328c0.175 0 0.28694-0.0232 0.33594-0.0672 0.049-0.043 0.0719-0.14669 0.0719-0.30469l0.006-0.17031v-6.5453c0-0.369-0.0619-0.62475-0.18593-0.76875-0.124-0.143-0.36476-0.23569-0.71876-0.27969-0.153-0.017-0.22812-0.0617-0.22812-0.12969 0-0.094 0.0688-0.14219 0.20781-0.14219 0.046 0 0.20007 0.0146 0.46407 0.0406 0.133 0.014 0.29818 0.0188 0.49218 0.0188l0.54063 0.006 0.50625-0.006c0.329 0 0.537-0.005 0.625-0.0188 0.171-0.026 0.28306-0.0406 0.33906-0.0406 0.129 0 0.19375 0.0488 0.19375 0.14375 0 0.072-0.0802 0.12188-0.24219 0.14688-0.581 0.098-0.88325 0.40319-0.90625 0.91719l-0.006 0.25781v6.4719c0 0.207 0.0251 0.33763 0.0781 0.39063s0.18138 0.0797 0.38438 0.0797h1.9453c0.387 0 0.64669-0.0482 0.77969-0.14219 0.134-0.094 0.23218-0.29938 0.29218-0.60938 0.028-0.142 0.0826-0.20868 0.16563-0.20468 0.101 0.008 0.14931 0.0784 0.14531 0.20937-0.005 0.066-0.0176 0.17188-0.0406 0.32188-0.023 0.117-0.0359 0.30662-0.0359 0.56562 0 0.257-0.0251 0.41206-0.0781 0.46406-0.053 0.054-0.20793 0.0797-0.46093 0.0797h-7.45zm41.555 0c-0.157 0-0.26038-0.0313-0.30938-0.0953-0.048-0.064-0.0719-0.19588-0.0719-0.39688 0-0.207-0.0351-0.46781-0.10312-0.78281-0.056-0.244-0.0828-0.41369-0.0828-0.50469 0-0.115 0.0414-0.17468 0.12343-0.17968 0.084-0.004 0.1455 0.0811 0.1875 0.25312 0.092 0.395 0.22263 0.66325 0.39063 0.80625 0.168 0.144 0.4395 0.21563 0.8125 0.21563h1.8328c0.176 0 0.28794-0.0232 0.33594-0.0672 0.049-0.043 0.0734-0.14669 0.0734-0.30469l0.008-0.17031v-6.5453c0-0.369-0.0635-0.62475-0.1875-0.76875-0.125-0.143-0.36531-0.23569-0.72031-0.27969-0.152-0.017-0.22813-0.0617-0.22813-0.12969 0-0.094 0.0698-0.14219 0.20781-0.14219 0.047 0 0.20163 0.0146 0.46563 0.0406 0.133 0.014 0.29819 0.0188 0.49219 0.0188l0.54062 0.006 0.50625-0.006c0.328 0 0.53544-0.005 0.62344-0.0188 0.171-0.026 0.28462-0.0406 0.34062-0.0406 0.129 0 0.19219 0.0488 0.19219 0.14375 0 0.072-0.0802 0.12188-0.24219 0.14688-0.581 0.098-0.88168 0.40319-0.90468 0.91719l-0.008 0.25781v6.4719c0 0.207 0.0277 0.33763 0.0797 0.39063 0.053 0.053 0.18138 0.0797 0.38438 0.0797h1.9438c0.387 0 0.64881-0.0482 0.78281-0.14219 0.134-0.094 0.22906-0.29938 0.28906-0.60938 0.028-0.142 0.0842-0.20868 0.16719-0.20468 0.102 0.008 0.14931 0.0784 0.14531 0.20937-0.005 0.066-0.0192 0.17188-0.0422 0.32188-0.023 0.117-0.0344 0.30662-0.0344 0.56562 0 0.257-0.0267 0.41206-0.0797 0.46406-0.053 0.054-0.20638 0.0797-0.45938 0.0797h-7.4516zm17.134 0c-0.157 0-0.25881-0.0313-0.30781-0.0953-0.048-0.064-0.0734-0.19588-0.0734-0.39688 0-0.207-0.0351-0.46781-0.10312-0.78281-0.055-0.244-0.0828-0.41369-0.0828-0.50469 0-0.115 0.0405-0.17468 0.12344-0.17968 0.083-0.004 0.14649 0.0811 0.18749 0.25312 0.092 0.395 0.22263 0.66325 0.39063 0.80625 0.168 0.144 0.4405 0.21563 0.8125 0.21563h1.8344c0.175 0 0.28737-0.0232 0.33437-0.0672 0.05-0.043 0.0734-0.14669 0.0734-0.30469l0.008-0.17031v-6.5453c0-0.369-0.0625-0.62475-0.1875-0.76875-0.125-0.143-0.36531-0.23569-0.72031-0.27969-0.151-0.017-0.22812-0.0617-0.22812-0.12969 0-0.094 0.0688-0.14219 0.20781-0.14219 0.046 0 0.20162 0.0146 0.46562 0.0406 0.134 0.014 0.29719 0.0188 0.49219 0.0188l0.54063 0.006 0.50468-0.006c0.329 0 0.537-0.005 0.625-0.0188 0.172-0.026 0.28407-0.0406 0.33907-0.0406 0.13 0 0.19374 0.0488 0.19374 0.14375 0 0.072-0.0796 0.12188-0.24062 0.14688-0.582 0.098-0.88325 0.40319-0.90625 0.91719l-0.008 0.25781v6.4719c0 0.207 0.0267 0.33763 0.0797 0.39063s0.18238 0.0797 0.38438 0.0797h1.9438c0.387 0 0.64825-0.0482 0.78125-0.14219 0.135-0.094 0.23062-0.29938 0.29062-0.60938 0.028-0.142 0.0842-0.20868 0.16719-0.20468 0.1 0.008 0.15031 0.0784 0.14531 0.20937-0.005 0.066-0.0192 0.17188-0.0422 0.32188-0.023 0.117-0.0344 0.30662-0.0344 0.56562 0 0.257-0.0267 0.41206-0.0797 0.46406-0.053 0.054-0.20594 0.0797-0.46094 0.0797h-7.45zm61.738 0c-0.156 0-0.25882-0.0313-0.30782-0.0953-0.048-0.064-0.0734-0.19588-0.0734-0.39688 0-0.207-0.0357-0.46781-0.10469-0.78281-0.055-0.244-0.0828-0.41369-0.0828-0.50469 0-0.115 0.042-0.17468 0.125-0.17968 0.083-0.004 0.14593 0.0811 0.18593 0.25312 0.093 0.395 0.22419 0.66325 0.39219 0.80625 0.168 0.144 0.4395 0.21563 0.8125 0.21563h1.8344c0.176 0 0.28793-0.0232 0.33593-0.0672 0.049-0.043 0.0718-0.14669 0.0718-0.30469l0.008-0.17031v-6.5453c0-0.369-0.0635-0.62475-0.18749-0.76875-0.125-0.143-0.36632-0.23569-0.72032-0.27969-0.152-0.017-0.22812-0.0617-0.22812-0.12969 0-0.094 0.0688-0.14219 0.20781-0.14219 0.046 0 0.20106 0.0146 0.46406 0.0406 0.135 0.014 0.29819 0.0188 0.49219 0.0188l0.54218 0.006 0.50469-0.006c0.329 0 0.537-0.005 0.625-0.0188 0.172-0.026 0.28407-0.0406 0.33907-0.0406 0.129 0 0.19531 0.0488 0.19531 0.14375 0 0.072-0.0812 0.12188-0.24219 0.14688-0.581 0.098-0.88381 0.40319-0.90781 0.91719l-0.006 0.25781v6.4719c0 0.207 0.0267 0.33763 0.0797 0.39063s0.18137 0.0797 0.38437 0.0797h1.9438c0.386 0 0.64825-0.0482 0.78125-0.14219 0.134-0.094 0.23219-0.29938 0.29219-0.60938 0.028-0.142 0.0836-0.20868 0.16562-0.20468 0.101 0.008 0.14931 0.0784 0.14531 0.20937-0.006 0.066-0.0192 0.17188-0.0422 0.32188-0.023 0.117-0.0344 0.30662-0.0344 0.56562 0 0.257-0.0267 0.41206-0.0797 0.46406-0.053 0.054-0.20537 0.0797-0.45937 0.0797h-7.4516zm-125.87-0.0391c0.004-0.116 0.0261-0.18919 0.0641-0.21719 0.051-0.038 0.26969-0.0711 0.65469-0.10312 0.385-0.03 0.66294-0.0881 0.83594-0.17813 0.033-0.06 0.0591-0.12406 0.0781-0.18906 0.028-0.326 0.0422-0.63725 0.0422-0.93125 0-0.113-0.004-0.21131-0.008-0.29531l-0.0141-0.36407 0.0141-0.28906v-0.64375l0.008-0.54687-0.0141-0.49688 0.0281-0.84844v-0.77187l0.006-0.73438c0-1.076-0.0527-1.6744-0.15469-1.7984-0.103-0.124-0.51-0.21025-1.225-0.25625-0.108-0.009-0.21263-0.0361-0.31563-0.0781l0.0141-0.20938h0.13281l1.65-0.006 0.96719 0.0125c0.299-0.013 0.508-0.0203 0.625-0.0203 0.2 0 0.51462 0.007 0.94062 0.0203v0.0563c0 0.042-0.008 0.0937-0.0219 0.15468-0.07 0.065-0.23488 0.1015-0.49688 0.1125-0.121 0.003-0.28968 0.0318-0.50468 0.0828-0.145 0.037-0.2495 0.087-0.3125 0.15-0.063 0.064-0.10625 0.1685-0.13125 0.3125-0.027 0.145-0.0391 0.48168-0.0391 1.0047 0 0.138 0.004 0.40263 0.0125 0.79063v1.2344l-0.0266 3.1188 0.0344 0.90469c0.01 0.229 0.0374 0.38631 0.0844 0.47031 0.028 0.055 0.0718 0.0942 0.13281 0.11719 0.098 0.048 0.3695 0.0959 0.8125 0.14688 0.22 0.03 0.37575 0.0551 0.46875 0.0781 0.01 0.067 0.0141 0.13594 0.0141 0.21094-0.795-0.028-1.4308-0.0422-1.9078-0.0422l-1.8594 0.0422h-0.58907zm107.01 0c0.005-0.116 0.0261-0.18919 0.0641-0.21719 0.051-0.038 0.26812-0.0711 0.65312-0.10312 0.385-0.03 0.66506-0.0881 0.83906-0.17813 0.032-0.06 0.057-0.12406 0.075-0.18906 0.029-0.326 0.0422-0.63725 0.0422-0.93125 0-0.113-0.00025-0.21131-0.006-0.29531l-0.0141-0.36407 0.0141-0.28906v-0.64375l0.006-0.54687-0.0125-0.49688 0.0266-0.84844v-0.77187l0.008-0.73438c0-1.076-0.0517-1.6744-0.15469-1.7984-0.102-0.124-0.511-0.21025-1.225-0.25625-0.108-0.009-0.21262-0.0361-0.31562-0.0781l0.0141-0.20938h0.13281l1.65-0.006 0.96719 0.0125c0.3-0.013 0.508-0.0203 0.62499-0.0203 0.20101 0 0.51407 0.007 0.93907 0.0203v0.0563c0 0.042-0.007 0.0937-0.0218 0.15468-0.069 0.065-0.23488 0.1015-0.49688 0.1125-0.121 0.003-0.28912 0.0318-0.50312 0.0828-0.145 0.037-0.24794 0.087-0.31094 0.15-0.064 0.064-0.10838 0.1685-0.13438 0.3125-0.027 0.145-0.0375 0.48168-0.0375 1.0047 0 0.138 0.002 0.40263 0.0125 0.79063v1.2344l-0.0282 3.1188 0.0375 0.90469c0.008 0.229 0.0348 0.38631 0.0828 0.47031 0.027 0.055 0.0728 0.0942 0.13282 0.11719 0.099 0.048 0.36793 0.0959 0.81093 0.14688 0.22 0.03 0.37732 0.0551 0.47032 0.0781 0.01 0.067 0.0141 0.13594 0.0141 0.21094-0.795-0.028-1.4314-0.0422-1.9094-0.0422l-1.8578 0.0422h-0.58905zm13.294 0c0.005-0.116 0.027-0.18919 0.0641-0.21719 0.05-0.038 0.26869-0.0711 0.65469-0.10312 0.385-0.03 0.66294-0.0881 0.83594-0.17813 0.033-0.06 0.0586-0.12406 0.0766-0.18906 0.028-0.326 0.0422-0.63725 0.0422-0.93125 0-0.113-0.002-0.21131-0.006-0.29531l-0.0141-0.36407 0.0141-0.28906v-0.64375l0.006-0.54687-0.0141-0.49688 0.0297-0.84844v-0.77187l0.005-0.73438c0-1.076-0.0501-1.6744-0.15312-1.7984-0.102-0.124-0.51044-0.21025-1.2234-0.25625-0.108-0.009-0.2152-0.0361-0.3172-0.0781l0.0141-0.20938h0.13282l1.65-0.006 0.96718 0.0125c0.299-0.013 0.508-0.0203 0.625-0.0203 0.202 0 0.51407 0.007 0.93907 0.0203v0.0563c0 0.042-0.006 0.0937-0.0203 0.15468-0.069 0.065-0.23487 0.1015-0.49687 0.1125-0.122 0.003-0.29069 0.0318-0.50469 0.0828-0.146 0.037-0.24951 0.087-0.31251 0.15-0.064 0.064-0.1068 0.1685-0.1328 0.3125-0.026 0.145-0.0375 0.48168-0.0375 1.0047 0 0.138 0.003 0.40263 0.0125 0.79063v1.2344l-0.0266 3.1188 0.0344 0.90469c0.009 0.229 0.0374 0.38631 0.0844 0.47031 0.028 0.055 0.0728 0.0942 0.13282 0.11719 0.098 0.048 0.36949 0.0959 0.81249 0.14688 0.22 0.03 0.37632 0.0551 0.47032 0.0781 0.009 0.067 0.0125 0.13594 0.0125 0.21094-0.795-0.028-1.4298-0.0422-1.9078-0.0422l-1.8594 0.0422h-0.58906zm-106.08-0.0359c-0.033 0-0.0705-0.0108-0.1125-0.0328-0.023-0.053-0.0344-0.0979-0.0344-0.13594 0-0.051 0.0296-0.092 0.0906-0.125 0.135-0.023 0.29175-0.0372 0.46875-0.0422 0.417-0.014 0.666-0.0651 0.75-0.15312 0.056-0.062 0.0866-0.33081 0.0906-0.80781l0.0359-1.9984-0.006-1.7609 0.0141-0.84375-0.008-1.7812 0.008-0.49062c0-0.169-0.0334-0.29975-0.0984-0.39375-0.108-0.055-0.38863-0.0976-0.84063-0.12657-0.192-0.013-0.32625-0.0317-0.40625-0.0547-0.033-0.01-0.0727-0.034-0.11875-0.075l-0.008-0.0688c0-0.046 0.0121-0.0791 0.0391-0.10312 0.025-0.022 0.0737-0.0344 0.14375-0.0344 0.397 0 1.0147 0.0192 1.8547 0.0562 0.093 0.005 0.19457 0.008 0.30157 0.008h0.85468l2.1016 0.0281 0.88125-0.008 1.9703 0.0219h0.15312c0.075 0.103 0.1125 0.23037 0.1125 0.38437 0.01 0.34 0.0396 0.67557 0.0906 1.0016 0.019 0.145 0.0962 0.44893 0.23125 0.91093-0.051 0.038-0.0986 0.0562-0.14063 0.0562-0.089 0-0.17662-0.0971-0.26562-0.28906-0.294-0.651-0.53725-1.0753-0.73125-1.2703-0.194-0.197-0.44006-0.33606-0.73906-0.41406-0.299-0.076-0.899-0.11563-1.8-0.11563-0.374 0-0.68719 0.004-0.94219 0.0109-0.254 0.008-0.40206 0.0109-0.43906 0.0109l-0.42657-0.006c-0.266 0-0.43875 0.0511-0.51875 0.15313-0.056 0.075-0.0866 0.35212-0.0906 0.82812l-0.008 0.79375 0.008 0.81407-0.008 1.2906 0.008 0.23281c0.2 0.027 0.626 0.0406 1.275 0.0406h0.45469c0.342 0 0.59731 0.003 0.77031 0.0109 0.173 0.006 0.29281 0.009 0.35781 0.009 0.299 0 0.51544-0.0591 0.64844-0.17812 0.133-0.119 0.25869-0.41394 0.37969-0.88594 0.071-0.275 0.14375-0.47838 0.21875-0.60938h0.0484c0.023 0 0.0526 0.008 0.0906 0.0281 0.014 0.07 0.0219 0.12675 0.0219 0.16875 0 0.023-0.0125 0.18325-0.0375 0.48125-0.026 0.3-0.0391 0.57106-0.0391 0.81406 0 0.911 0.0104 1.452 0.0344 1.625 0.009 0.074 0.0141 0.12794 0.0141 0.16094 0 0.032-0.005 0.0677-0.0141 0.10469-0.051 0.024-0.10719 0.0344-0.16719 0.0344-0.122-0.046-0.20094-0.24656-0.23594-0.60156s-0.0862-0.57481-0.15625-0.65781c-0.042-0.056-0.18793-0.10544-0.43593-0.14844-0.794 0-1.4419-0.009-1.9469-0.0281-0.041-0.004-0.0899-0.006-0.14687-0.006-0.084 0-0.24763 0.003-0.49063 0.0141-0.154 0.004-0.271 0.008-0.35 0.008h-0.11875c-0.061 0-0.11619 0.007-0.16719 0.0203v0.975c-0.024 1.064-0.0359 1.6242-0.0359 1.6812 0 0.545 0.0397 0.87393 0.11875 0.98593 0.052 0.065 0.2055 0.0969 0.4625 0.0969h0.175l1.9984 0.0437c0.098 0 0.19857-0.004 0.30157-0.008 0.384-0.009 0.5955-0.0141 0.6375-0.0141 0.206 0 0.34025-0.0167 0.40625-0.0547 0.065-0.037 0.15644-0.15456 0.27344-0.35156 0.173-0.294 0.30362-0.55256 0.39062-0.77656 0.086-0.226 0.15425-0.38131 0.20625-0.47031 0.041-0.014 0.0859-0.0203 0.13594-0.0203 0.023 0.009 0.0372 0.0277 0.0422 0.0547-0.033 0.337-0.05 0.74838-0.05 1.2344 0 0.032 0.0118 0.11712 0.0328 0.25312 0.021 0.134 0.0312 0.235 0.0312 0.3-0.01 0.042-0.0254 0.0808-0.0484 0.11875l-0.0703 0.0344-0.58281-0.0203-0.11875 0.0203-0.99532-0.006c-0.424 0.019-0.68987 0.0281-0.79687 0.0281-0.122 0-0.354-0.007-0.7-0.0219-0.346-0.014-0.82775-0.0203-1.4438-0.0203l-1.2328 0.0297-0.51719-0.0156c-0.294 0-0.57969 0.0152-0.85469 0.0422-0.094 0.004-0.17306 0.006-0.23906 0.006zm58.812 0c-0.033 0-0.0705-0.0108-0.1125-0.0328-0.024-0.053-0.0359-0.0979-0.0359-0.13594 0-0.051 0.0312-0.092 0.0922-0.125 0.135-0.023 0.29231-0.0372 0.47031-0.0422 0.414-0.014 0.66544-0.0651 0.74844-0.15312 0.057-0.062 0.0866-0.33081 0.0906-0.80781l0.0359-1.9984-0.008-1.7609 0.0141-0.84375-0.006-1.7812 0.006-0.49062c0-0.169-0.0318-0.29975-0.0969-0.39375-0.108-0.055-0.38918-0.0976-0.84218-0.12657-0.192-0.013-0.32726-0.0317-0.40626-0.0547-0.033-0.01-0.0718-0.034-0.11874-0.075l-0.006-0.0688c0-0.046 0.0115-0.0791 0.0375-0.10312 0.026-0.022 0.0747-0.0344 0.14375-0.0344 0.397 0 1.0152 0.0192 1.8562 0.0562 0.093 0.005 0.19456 0.008 0.30156 0.008h0.85468l2.1016 0.0281 0.88126-0.008 1.9687 0.0219h0.15469c0.075 0.103 0.11251 0.23037 0.11251 0.38437 0.008 0.34 0.0381 0.67557 0.0891 1.0016 0.02 0.145 0.0968 0.44893 0.23281 0.91093-0.052 0.038-0.0986 0.0562-0.14063 0.0562-0.089 0-0.17818-0.0971-0.26718-0.28906-0.294-0.651-0.53826-1.0753-0.73126-1.2703-0.194-0.197-0.44005-0.33606-0.73905-0.41406-0.299-0.076-0.899-0.11563-1.8-0.11563-0.374 0-0.68819 0.004-0.94219 0.0109-0.255 0.008-0.4005 0.0109-0.4375 0.0109l-0.42657-0.006c-0.267 0-0.43874 0.0511-0.51874 0.15313-0.057 0.075-0.0882 0.35212-0.0922 0.82812l-0.006 0.79375 0.006 0.81407-0.006 1.2906 0.006 0.23281c0.202 0.027 0.626 0.0406 1.275 0.0406h0.45624c0.341 0 0.59732 0.003 0.77032 0.0109 0.173 0.006 0.29181 0.009 0.35781 0.009 0.299 0 0.51387-0.0591 0.64687-0.17812 0.133-0.119 0.26082-0.41394 0.38282-0.88594 0.069-0.275 0.14162-0.47838 0.21562-0.60938h0.0484c0.023 0 0.0542 0.008 0.0922 0.0281 0.013 0.07 0.0218 0.12675 0.0218 0.16875 0 0.023-0.0141 0.18325-0.039 0.48125-0.026 0.3-0.039 0.57106-0.039 0.81406 0 0.911 0.0119 1.452 0.0359 1.625 0.009 0.074 0.0125 0.12794 0.0125 0.16094 0 0.032-0.003 0.0677-0.0125 0.10469-0.052 0.024-0.10875 0.0344-0.16875 0.0344-0.122-0.046-0.19937-0.24656-0.23437-0.60156s-0.0868-0.57481-0.15782-0.65781c-0.042-0.056-0.18681-0.10544-0.43281-0.14844-0.795 0-1.4444-0.009-1.9484-0.0281-0.042-0.004-0.0909-0.006-0.14688-0.006-0.084 0-0.24762 0.003-0.49062 0.0141-0.153 0.004-0.271 0.008-0.35 0.008h-0.12031c-0.06 0-0.11619 0.007-0.16719 0.0203v0.975c-0.023 1.064-0.0344 1.6242-0.0344 1.6812 0 0.545 0.0398 0.87393 0.11876 0.98593 0.052 0.065 0.20449 0.0969 0.46249 0.0969h0.175l1.9984 0.0437c0.098 0 0.197-0.004 0.3-0.008 0.383-0.009 0.59707-0.0141 0.63907-0.0141 0.205 0 0.34124-0.0167 0.40624-0.0547 0.066-0.037 0.15644-0.15456 0.27344-0.35156 0.173-0.294 0.30206-0.55256 0.38906-0.77656 0.087-0.226 0.15526-0.38131 0.20626-0.47031 0.041-0.014 0.0869-0.0203 0.13593-0.0203 0.024 0.009 0.0382 0.0277 0.0422 0.0547-0.033 0.337-0.0484 0.74838-0.0484 1.2344-0.00001 0.032 0.0102 0.11712 0.0313 0.25312 0.021 0.134 0.0313 0.235 0.0313 0.3-0.009 0.042-0.0265 0.0808-0.0485 0.11875l-0.07 0.0344-0.58125-0.0203-0.12031 0.0203-0.99375-0.006c-0.425 0.019-0.69044 0.0281-0.79843 0.0281-0.12 0-0.355-0.007-0.7-0.0219-0.34601-0.014-0.82619-0.0203-1.4422-0.0203l-1.2328 0.0297-0.51874-0.0156c-0.294 0-0.57869 0.0152-0.85469 0.0422-0.093 0.004-0.1725 0.006-0.2375 0.006zm39.042 0c-0.004-0.048-0.006-0.0829-0.006-0.11094 0-0.024 0.002-0.0615 0.006-0.1125 0.653-0.117 1.0196-0.18512 1.1016-0.20312 0.081-0.019 0.18425-0.0555 0.30625-0.1125 0.033-0.084 0.0528-0.14988 0.0578-0.19688 0.013-0.243 0.0175-0.85718 0.0125-1.8422v-0.43438l-0.006-1.6422 0.006-1.2531-0.0484-1.8516c-0.01-0.388-0.0368-0.61188-0.0828-0.67188-0.066-0.084-0.21418-0.13569-0.44218-0.15469-0.346-0.034-0.70007-0.0989-1.0641-0.19687-0.033-0.057-0.0528-0.12006-0.0578-0.18906h0.72969c0.145 0 0.28151 0.006 0.41251 0.0141 0.421 0.043 1.7558 0.0641 4.0078 0.0641l2.6188-0.0781c0.008 0.079 0.0186 0.16537 0.0266 0.25937 0.052 0.438 0.14525 0.98788 0.28125 1.6469 0.033 0.149 0.0626 0.307 0.0906 0.475h-0.23126c-0.149-0.363-0.26825-0.60613-0.35625-0.72813-0.056-0.074-0.0963-0.13075-0.12031-0.16875-0.106-0.178-0.25487-0.34819-0.44687-0.51719-0.318-0.262-0.54369-0.41887-0.67969-0.47187-0.135-0.055-0.36269-0.0869-0.67969-0.0969l-1.2125-0.0422h-0.475c-0.571 0.005-0.91368 0.0106-1.0297 0.0156-0.047 0.033-0.0703 0.11938-0.0703 0.25938l-0.008 0.43281 0.0218 1.975-0.0141 2.3203v0.44063l-0.008 1.2953v0.42031c0.0104 0.229 0.016 0.38125 0.016 0.45625 0 0.312 0.0524 0.49938 0.15937 0.55938 0.065 0.038 0.317 0.0647 0.75 0.0797 0.436 0.017 0.67769 0.0301 0.72969 0.0391 0.027 0.098 0.0434 0.18943 0.0484 0.27343-0.15401 0.014-0.42201 0.0219-0.8 0.0219l-0.56094-0.0422c-0.042-0.005-0.20212-0.008-0.47812-0.008-0.112 0.01-0.17957 0.0141-0.20157 0.0141l-0.18438-0.006-0.61718 0.0125-1.0672 0.0406c-0.2 0.011-0.34438 0.0156-0.43438 0.0156zm93.277 0c-0.033 0-0.069-0.0108-0.11094-0.0328-0.023-0.053-0.0359-0.0979-0.0359-0.13594 0-0.051 0.031-0.092 0.0891-0.125 0.137-0.023 0.29388-0.0372 0.47188-0.0422 0.416-0.014 0.66544-0.0651 0.74844-0.15312 0.056-0.062 0.0866-0.33081 0.0906-0.80781l0.0359-1.9984-0.006-1.7609 0.0141-0.84375-0.008-1.7812 0.008-0.49062c0-0.169-0.0344-0.29975-0.0984-0.39375-0.109-0.055-0.38862-0.0976-0.84062-0.12657-0.192-0.013-0.32726-0.0317-0.40626-0.0547-0.033-0.01-0.0733-0.034-0.12031-0.075l-0.005-0.0688c0-0.046 0.0115-0.0791 0.0375-0.10312 0.026-0.022 0.0738-0.0344 0.14375-0.0344 0.395 0 1.0142 0.0192 1.8562 0.0562 0.093 0.005 0.192 0.008 0.3 0.008h0.85469l2.1 0.0281 0.88437-0.008 1.9672 0.0219h0.15469c0.074 0.103 0.11093 0.23037 0.11093 0.38437 0.01 0.34 0.0402 0.67557 0.0922 1.0016 0.019 0.145 0.0952 0.44893 0.23125 0.91093-0.051 0.038-0.0986 0.0562-0.14062 0.0562-0.089 0-0.17763-0.0971-0.26563-0.28906-0.296-0.651-0.53825-1.0753-0.73125-1.2703-0.195-0.197-0.44163-0.33606-0.74063-0.41406-0.298-0.076-0.89843-0.11563-1.7984-0.11563-0.375 0-0.68875 0.004-0.94375 0.0109-0.254 0.008-0.39894 0.0109-0.43594 0.0109l-0.42812-0.006c-0.266 0-0.43976 0.0511-0.51876 0.15313-0.057 0.075-0.0866 0.35212-0.0906 0.82812l-0.008 0.79375 0.008 0.81407-0.008 1.2906 0.008 0.23281c0.201 0.027 0.625 0.0406 1.275 0.0406h0.45625c0.34 0 0.59675 0.003 0.76875 0.0109 0.174 0.006 0.29225 0.009 0.35625 0.009 0.3 0 0.516-0.0591 0.65-0.17812 0.132-0.119 0.25825-0.41394 0.38125-0.88594 0.069-0.275 0.14063-0.47838 0.21563-0.60938h0.05c0.023 0 0.0542 0.008 0.0922 0.0281 0.013 0.07 0.0203 0.12675 0.0203 0.16875 0 0.023-0.0125 0.18325-0.0375 0.48125-0.026 0.3-0.039 0.57106-0.039 0.81406 0 0.911 0.0114 1.452 0.0344 1.625 0.01 0.074 0.0141 0.12794 0.0141 0.16094 0 0.032-0.004 0.0677-0.0141 0.10469-0.051 0.024-0.10719 0.0344-0.16719 0.0344-0.122-0.046-0.20094-0.24656-0.23594-0.60156s-0.0868-0.57481-0.1578-0.65781c-0.041-0.056-0.18738-0.10544-0.43438-0.14844-0.795 0-1.4429-0.009-1.9469-0.0281-0.041-0.004-0.0889-0.006-0.14687-0.006-0.083 0-0.24763 0.003-0.49063 0.0141-0.153 0.004-0.271 0.008-0.35 0.008h-0.11875c-0.061 0-0.11775 0.007-0.16875 0.0203v0.975c-0.024 1.064-0.0344 1.6242-0.0344 1.6812 0 0.545 0.0398 0.87393 0.11874 0.98593 0.051 0.065 0.20451 0.0969 0.46251 0.0969h0.175l1.9984 0.0437c0.098 0 0.19757-0.004 0.30157-0.008 0.382-0.009 0.59549-0.0141 0.63749-0.0141 0.205 0 0.34069-0.0167 0.40469-0.0547 0.066-0.037 0.157-0.15456 0.275-0.35156 0.173-0.294 0.30207-0.55256 0.38907-0.77656 0.086-0.226 0.15624-0.38131 0.20624-0.47031 0.041-0.014 0.0875-0.0203 0.13751-0.0203 0.023 0.009 0.0382 0.0277 0.0422 0.0547-0.034 0.337-0.05 0.74838-0.05 1.2344 0 0.032 0.0102 0.11712 0.0313 0.25312 0.021 0.134 0.0328 0.235 0.0328 0.3-0.01 0.042-0.026 0.0808-0.05 0.11875l-0.0701 0.0344-0.57969-0.0203-0.12031 0.0203-0.99375-0.006c-0.425 0.019-0.692 0.0281-0.8 0.0281-0.122 0-0.354-0.007-0.7-0.0219-0.346-0.014-0.82519-0.0203-1.4422-0.0203l-1.2328 0.0297-0.51719-0.0156c-0.294 0-0.58025 0.0152-0.85625 0.0422-0.093 0.004-0.1735 0.006-0.2375 0.006zm-178.17-0.2375c0.705 0 1.3602-0.0916 1.9672-0.27656 0.607-0.185 1.1352-0.47488 1.5812-0.87188 0.445-0.396 0.75637-0.81287 0.93437-1.2469 0.257-0.626 0.38438-1.2424 0.38438-1.8484 0-0.635-0.0643-1.152-0.19531-1.55-0.094-0.27-0.25257-0.57406-0.47657-0.91406-0.224-0.339-0.51081-0.64138-0.85781-0.90938-0.348-0.269-0.74856-0.47643-1.2016-0.62343-0.453-0.147-0.91494-0.22032-1.3859-0.22032-0.365 0-0.72569 0.0602-1.0797 0.18125-0.397 0.196-0.639 0.42663-0.725 0.69063-0.087 0.264-0.12812 1.5629-0.12812 3.8969l0.006 1.5906c0 0.326-0.006 0.76212-0.0203 1.3031-0.005 0.084-0.008 0.15619-0.008 0.21719 0 0.098 0.0132 0.20544 0.0422 0.32344 0.027 0.036 0.0554 0.0683 0.0844 0.0953 0.233 0.109 0.59212 0.1625 1.0781 0.1625zm171.18 0c0.705 0 1.3608-0.0916 1.9688-0.27656 0.605-0.185 1.1331-0.47488 1.5781-0.87188 0.447-0.396 0.75893-0.81287 0.93593-1.2469 0.255-0.626 0.38595-1.2424 0.38595-1.8484 0-0.635-0.0669-1.152-0.19688-1.55-0.094-0.27-0.25156-0.57406-0.47656-0.91406-0.224-0.339-0.50982-0.64138-0.85782-0.90938-0.348-0.269-0.74856-0.47643-1.2016-0.62343-0.453-0.147-0.91393-0.22032-1.3859-0.22032-0.364 0-0.72469 0.0602-1.0797 0.18125-0.396 0.196-0.637 0.42663-0.725 0.69063-0.085 0.264-0.12813 1.5629-0.12813 3.8969l0.006 1.5906c0 0.326-0.006 0.76212-0.0203 1.3031-0.006 0.084-0.009 0.15619-0.009 0.21719 0 0.098 0.0158 0.20544 0.0438 0.32344 0.029 0.036 0.0574 0.0683 0.0844 0.0953 0.233 0.109 0.59212 0.1625 1.0781 0.1625zm-51.948-0.0766c0.514 0 0.95331-0.0914 1.3203-0.27344 0.366-0.182 0.62725-0.40812 0.78125-0.67812 0.2-0.356 0.30156-0.69025 0.30156-1.0062 0-0.29-0.0647-0.5675-0.19375-0.8375-0.127-0.272-0.28769-0.47707-0.47969-0.61407-0.191-0.138-0.44044-0.23587-0.74844-0.29687-0.43899-0.079-0.82805-0.11719-1.164-0.11719-0.061 0-0.15369 0.001-0.27969 0.006-0.018 0.564-0.0266 1.0266-0.0266 1.3906l0.006 0.53907-0.0359 1.3062c0 0.132 0.01 0.31793 0.0297 0.56093 0.2 0.013 0.36406 0.0203 0.48906 0.0203zm-8.875-0.59688 0.0703-0.12812 0.6375-1.6156c0.033-0.084 0.19912-0.53231 0.50312-1.3453 0.06-0.158 0.11494-0.32894 0.16094-0.51094-0.275-0.023-0.59537-0.0344-0.95937-0.0344-0.64 0-1.2104 0.0152-1.7094 0.0422l-0.0422 0.0281c0.032 0.074 0.058 0.14831 0.075 0.22031 0.015 0.072 0.0563 0.19813 0.12031 0.37813 0.067 0.18 0.13064 0.36175 0.19064 0.54375 0.131 0.406 0.34531 0.972 0.64531 1.7 0.177 0.425 0.27981 0.66587 0.30781 0.72187zm33.328 0 0.0703-0.12812 0.63594-1.6156c0.034-0.084 0.20169-0.53231 0.50469-1.3453 0.06-0.158 0.11393-0.32894 0.16093-0.51094-0.276-0.023-0.59593-0.0344-0.96093-0.0344-0.639 0-1.2088 0.0152-1.7078 0.0422l-0.0422 0.0281c0.032 0.074 0.0574 0.14831 0.0734 0.22031s0.0578 0.19813 0.12187 0.37813c0.066 0.18 0.12963 0.36175 0.19063 0.54375 0.131 0.406 0.34531 0.972 0.64531 1.7 0.178 0.425 0.27981 0.66587 0.30781 0.72187zm18.281 0 0.0703-0.12812 0.63594-1.6156c0.033-0.084 0.20013-0.53231 0.50313-1.3453 0.061-0.158 0.11493-0.32894 0.16093-0.51094-0.274-0.023-0.59381-0.0344-0.95781-0.0344-0.64 0-1.2114 0.0152-1.7094 0.0422l-0.0438 0.0281c0.033 0.074 0.059 0.14831 0.075 0.22031s0.0569 0.19813 0.12187 0.37813c0.065 0.18 0.12806 0.36175 0.18906 0.54375 0.131 0.406 0.34688 0.972 0.64688 1.7 0.177 0.425 0.27981 0.66587 0.30781 0.72187zm-130.03-0.17812 0.0703-0.125 0.6375-1.6188c0.032-0.083 0.20013-0.53219 0.50313-1.3422 0.06-0.16 0.11493-0.3315 0.16093-0.5125-0.275-0.023-0.59637-0.0344-0.95937-0.0344-0.64 0-1.2109 0.0136-1.7109 0.0406l-0.0422 0.0281c0.033 0.075 0.059 0.14731 0.075 0.22031 0.016 0.072 0.0569 0.19812 0.12188 0.37812 0.066 0.181 0.12962 0.36175 0.19062 0.54375 0.131 0.407 0.34532 0.973 0.64531 1.7 0.177 0.425 0.27982 0.66688 0.30782 0.72188zm-80.388-11.78v-1.7141h257.27v1.7141h-257.27zm77.413-4.5703c-2.589 0-4.6516-0.676-6.1906-2.025-1.538-1.351-2.3094-2.9982-2.3094-4.9422 0-1.077 0.21756-2.0212 0.65156-2.8312 0.588-1.049 1.4678-2.0417 2.6438-2.9797 0.726-0.574 2.294-1.4871 4.7-2.7391 2.405-1.251 4.0077-2.3468 4.8047-3.2828 0.79801-0.939 1.1969-1.9732 1.1969-3.1062 0-0.825-0.2625-1.676-0.7875-2.55-0.524-0.874-1.2518-1.5411-2.1828-2.0031-0.93-0.461-1.9476-0.69218-3.0516-0.69218-1.805 0-3.4199 0.67793-4.8469 2.0359-1.441 1.356-2.2382 2.8966-2.3922 4.6156-0.029 0.253-0.0808 0.42206-0.15781 0.51406-0.077 0.09-0.17869 0.13594-0.30469 0.13594-0.154 0-0.25806-0.0499-0.31406-0.14688-0.07-0.113-0.11987-0.49612-0.14687-1.1531-0.014-1.064-0.11907-2.4209-0.31407-4.0719-0.028-0.237-0.0422-0.4335-0.0422-0.5875 0-0.252 0.11138-0.4885 0.33438-0.7125 0.224-0.224 0.84775-0.51725 1.8688-0.88125 1.734-0.6 3.5448-0.90312 5.4328-0.90312 2.169 0 3.91 0.33444 5.225 0.99844 1.315 0.665 2.3615 1.6549 3.1375 2.9719 0.776 1.316 1.1641 2.7249 1.1641 4.2219 0 1.19-0.24538 2.2678-0.73438 3.2328-0.49 0.967-1.2162 1.8171-2.1812 2.5531-0.965 0.735-2.5667 1.6815-4.8047 2.8375-2.938 1.506-4.7636 2.6356-5.4766 3.3906-0.714 0.755-1.0719 1.5879-1.0719 2.4969 0 1.188 0.51181 2.2316 1.5328 3.1266 1.021 0.896 2.3294 1.3422 3.9234 1.3422 1.539 0 2.8441-0.44618 3.9141-1.3422 1.07-0.895 1.8286-2.3217 2.2766-4.2797l0.1875-0.0422c0.084 0 0.18962 0.0284 0.31562 0.0844 0.042 0.223 0.0767 0.73325 0.10469 1.5312l0.0844 1.8672c0 0.14-0.0578 0.67131-0.16875 1.5953-0.798 0.573-1.5731 0.9855-2.3281 1.2375-1.036 0.321-2.2662 0.48281-3.6922 0.48281zm61.628-0.4625c-1.245 0-2.337-0.041-3.275-0.125l-3.5656-0.21094c-0.994-0.056-1.6456-0.0828-1.9516-0.0828-0.21 0-0.602 0.005-1.175 0.0203-1.091 0.056-1.874 0.0844-2.35 0.0844-0.069 0-0.23082-0.0211-0.48282-0.0641-0.084-0.153-0.125-0.28644-0.125-0.39844 0-0.099 0.0342-0.22356 0.10313-0.37656 2.071-0.294 3.3648-0.67281 3.8828-1.1328 0.306-0.266 0.46093-0.90181 0.46093-1.9078v-0.35625c0-2.601 0.0284-5.1574 0.0844-7.6734 0.139-5.381 0.20938-8.8953 0.20938-10.545 0-0.516-0.007-0.92419-0.0203-1.2172-0.015-0.419-0.0203-0.69219-0.0203-0.81719 0-0.573-0.071-0.95712-0.21094-1.1531-0.098-0.127-0.37018-0.25157-0.81718-0.37657l-2.7281-0.525 0.0203-0.54531c0.671 0.029 1.0772 0.0422 1.2172 0.0422l2.2031-0.0641 3.6922 0.14844c0.685 0 1.6314-0.0641 2.8344-0.18906 0.615-0.07 1.0064-0.10625 1.1734-0.10625 0.267 0 0.44438 0.0323 0.53438 0.0953 0.091 0.063 0.16587 0.20037 0.22187 0.40937-0.084 0.14-0.18275 0.23144-0.29375 0.27344-0.07 0.028-0.48306 0.13206-1.2391 0.31406-1.622 0.363-2.6015 0.59363-2.9375 0.69063-0.111 0.35-0.16719 0.86025-0.16719 1.5312 0 0.28 0.0176 0.60794 0.0515 0.98594 0.035 0.377 0.0531 0.636 0.0531 0.775l-0.27188 9.5812v1.1734c-0.084 0.699-0.12656 2.474-0.12656 5.325 0 0.783 0.0142 1.3626 0.0422 1.7406l0.0203 0.41875-0.0625 2.3688 0.0203 0.29531c0.321 0.252 1.3471 0.37656 3.0781 0.37656 0.558 0 1.3432-0.11825 2.3562-0.35625 1.012-0.237 1.7646-0.53068 2.2516-0.87968 0.866-0.615 1.5638-1.4339 2.0938-2.4609 0.531-1.026 0.79531-2.085 0.79531-3.175 0-1.117-0.25169-2.1778-0.75469-3.1828-0.504-1.006-1.2494-1.781-2.2344-2.325-0.987-0.546-2.0319-0.81875-3.1359-0.81875-0.729 0-1.3287 0.0836-1.8047 0.25156-0.21 0.085-0.41437 0.12812-0.60937 0.12812-0.099-0.042-0.17425-0.11393-0.23125-0.21093 0.057-0.197 0.21738-0.38519 0.48438-0.56719 0.629-0.42 1.1881-0.703 1.6781-0.85 0.489-0.146 1.097-0.21875 1.825-0.21875 2.602 0 4.6719 0.7945 6.2109 2.3875 1.538 1.593 2.3078 3.4857 2.3078 5.6797 0 1.311-0.35394 2.6324-1.0609 3.9594-0.706 1.327-1.7099 2.3014-3.0109 2.9234s-3.0478 0.93281-5.2438 0.93281zm27.78-0.0406c-2.182 0-3.9871-0.23175-5.4141-0.69375-2.028-0.672-3.6165-1.4448-4.7625-2.3187-1.148-0.874-2.1255-1.9625-2.9375-3.2625-0.811-1.301-1.3882-2.5093-1.7312-3.6203s-0.51407-2.3808-0.51407-3.8078c0-1.736 0.26588-3.3357 0.79688-4.8047 0.532-1.469 1.3116-2.8121 2.3406-4.0281 1.028-1.217 2.027-2.1384 3-2.7594 0.971-0.623 2.1846-1.1504 3.6406-1.5844 1.455-0.433 3.1124-0.65157 4.9734-0.65157 1.831 0 3.5383 0.24932 5.1203 0.74532 1.58 0.497 2.9011 1.1505 3.9641 1.9625 1.595 1.204 2.7211 2.2676 3.3781 3.1906 0.84 1.188 1.4378 2.3908 1.7938 3.6078 0.357 1.217 0.53594 2.7483 0.53594 4.5953 0 1.622-0.26588 3.1969-0.79688 4.7219-0.407 1.161-1.0077 2.2436-1.8047 3.2516-1.148 1.454-2.2952 2.5313-3.4422 3.2312-1.147 0.7-2.4231 1.2429-3.8281 1.6359-1.406 0.391-2.8435 0.58906-4.3125 0.58906zm-77.936-0.0281c-0.472 0-0.78056-0.0971-0.92656-0.28907-0.145-0.192-0.21719-0.59312-0.21719-1.2031 0-0.621-0.10449-1.4085-0.31249-2.3625-0.166-0.742-0.24844-1.2517-0.24844-1.5297 0-0.344 0.12444-0.5235 0.37344-0.5375 0.25-0.014 0.43693 0.23881 0.56093 0.75781 0.278 1.197 0.67056 2.0102 1.1766 2.4422 0.507 0.432 1.3213 0.64844 2.4453 0.64844h5.5156c0.526 0 0.86081-0.067 1.0078-0.2 0.146-0.132 0.21876-0.43975 0.21876-0.91875l0.0218-0.51875v-19.789c0-1.118-0.18751-1.892-0.5625-2.325-0.37401-0.433-1.0961-0.71644-2.1641-0.84844-0.458-0.053-0.68751-0.18363-0.68751-0.39063 0-0.285 0.20756-0.42812 0.62656-0.42812 0.13701 0 0.60388 0.0403 1.3969 0.12031 0.404 0.039 0.89669 0.0594 1.4797 0.0594l1.6266 0.0203 1.5234-0.0203c0.986 0 1.6126-0.0204 1.8766-0.0594 0.514-0.08 0.85487-0.12031 1.0219-0.12031 0.39 0 0.58437 0.14369 0.58437 0.42969 0 0.221-0.24312 0.37143-0.72812 0.44843-1.748 0.293-2.6576 1.217-2.7266 2.775l-0.0203 0.77969v19.567c0 0.626 0.0775 1.0181 0.2375 1.1781 0.159 0.16 0.54525 0.24063 1.1562 0.24063h5.8469c1.166 0 1.9501-0.14269 2.3531-0.42969 0.401-0.285 0.69088-0.89919 0.87187-1.8422 0.083-0.426 0.24901-0.63275 0.5-0.61875 0.304 0.025 0.45151 0.23838 0.43751 0.63438-0.015 0.199-0.0566 0.52344-0.12656 0.97344-0.069 0.358-0.10157 0.92681-0.10157 1.7078 0 0.781-0.0806 1.2519-0.24062 1.4109-0.159 0.158-0.62038 0.2375-1.3844 0.2375h-22.412zm144.21-0.006c-0.472 0-0.78213-0.0965-0.92813-0.2875-0.144-0.193-0.21718-0.59313-0.21718-1.2031 0-0.622-0.10551-1.4101-0.31251-2.3641-0.167-0.742-0.25-1.2507-0.25-1.5297 0-0.344 0.12444-0.52294 0.37344-0.53594 0.25-0.015 0.4375 0.23982 0.5625 0.75782 0.278 1.197 0.669 2.0086 1.175 2.4406 0.507 0.433 1.3229 0.64844 2.4469 0.64844h5.5141c0.527 0 0.86394-0.067 1.0109-0.2 0.145-0.132 0.21718-0.43819 0.21718-0.91719l0.0219-0.52031v-19.788c0-1.117-0.1875-1.8936-0.5625-2.3266s-1.0961-0.71644-2.1641-0.84844c-0.459-0.052-0.6875-0.18206-0.6875-0.38906 0-0.285 0.208-0.42813 0.625-0.42813 0.139 0 0.60487 0.0387 1.3969 0.11875 0.405 0.04 0.89782 0.0609 1.4828 0.0609l1.625 0.0203 1.5234-0.0203c0.987 0 1.6116-0.0209 1.8766-0.0609 0.514-0.08 0.85331-0.11875 1.0203-0.11875 0.389 0 0.58438 0.14269 0.58438 0.42969 0 0.22-0.24213 0.36987-0.72813 0.44687-1.748 0.293-2.6576 1.2186-2.7266 2.7766l-0.0203 0.77812v19.569c0 0.626 0.079 1.0181 0.23905 1.1781 0.159 0.16 0.54369 0.23906 1.1547 0.23906h5.8484c1.166 0 1.9486-0.14113 2.3516-0.42813 0.403-0.285 0.69244-0.89975 0.87344-1.8438 0.083-0.426 0.249-0.63118 0.5-0.61718 0.305 0.025 0.45051 0.23737 0.43751 0.63437-0.015 0.198-0.056 0.52344-0.125 0.97344-0.069 0.357-0.10469 0.92525-0.10469 1.7062 0 0.781-0.0811 1.2509-0.23907 1.4109-0.161 0.159-0.62137 0.2375-1.3844 0.2375h-22.411zm-11.322-0.0922c-0.363 0-0.73394-0.0577-1.1109-0.16875-0.1-0.196-0.16206-0.40513-0.18906-0.62813 0.111-0.196 0.22394-0.31581 0.33594-0.35781 0.11-0.041 0.4825-0.0777 1.1125-0.10469 0.531-0.07 0.923-0.11256 1.175-0.12656 1.063-0.197 1.6574-0.38362 1.7844-0.56562 0.181-0.251 0.27187-1.1485 0.27187-2.6875 0-0.853 0.0478-1.8422 0.14688-2.9672 0.097-1.127 0.15218-1.8924 0.16718-2.2984 0.097-2.966 0.14844-4.7348 0.14844-5.3078v-0.90156l0.0406-1.9734-0.0828-1.2594c0-0.113 0.041-1.1388 0.125-3.0828l-0.0203-0.33594c-0.769 0.812-1.3991 1.4894-1.8891 2.0344l-5.0156 5.5594c-2.126 2.35-3.5551 3.8971-4.2891 4.6391-0.735 0.74-1.5503 1.6364-2.4453 2.6844l-0.62969 0.75625-4.4281 4.8891c-0.14 0.153-0.26612 0.29275-0.37812 0.41875-0.504 0.629-1.0489 1.1907-1.6359 1.6797-0.252 0.014-0.43962 0.0203-0.56562 0.0203-0.154 0-0.42776-0.0205-0.81876-0.0625-1.006-0.112-2.5955-0.16875-4.7625-0.16875l0.0203-1.0062c0.252-0.07 0.80875-0.15513 1.6688-0.25313 0.86-0.098 1.5555-0.3355 2.0875-0.7125 0.265-0.197 0.44-0.41987 0.525-0.67187 0.153-0.475 0.24444-2.043 0.27344-4.7l0.0422-5.9594v-2.8531c0.042-2.306 0.061-3.8965 0.061-4.7625 0-1.861-0.0767-3.2735-0.22969-4.2375-0.168-0.196-0.386-0.34419-0.65-0.44219-0.407-0.154-1.0502-0.29275-1.9312-0.41875l-0.98594-0.14687-0.54531-0.25313 0.0203-0.62812c0.238-0.028 0.41931-0.0438 0.54531-0.0438l0.29376 0.0219c1.063 0.071 2.2948 0.10625 3.6938 0.10625 1.986 0 3.6722-0.0573 5.0562-0.17032 0.225-0.027 0.41262-0.0406 0.56562-0.0406 0.14 0 0.32287 0.0357 0.54687 0.10469l0.0203 0.79687c-0.07 0.042-0.15356 0.10507-0.25156 0.18907-1.287 0.251-2.5944 0.44218-3.9234 0.56718l-0.73593 0.16875c-0.055 0.545-0.0891 1.1104-0.10312 1.6984l-0.14844 6.9453c-0.139 4.798-0.20938 8.5605-0.20938 11.288l0.0641 0.71407c0.364-0.266 0.65094-0.50407 0.86094-0.71407s0.71293-0.78275 1.5109-1.7188c1.274-1.484 2.2389-2.5754 2.8969-3.2734 2.435-2.602 4.4141-4.7707 5.9391-6.5047l0.4625-0.4625c0.209-0.21 0.66507-0.69919 1.3641-1.4672l1.8047-2.0781c0.238-0.28 0.6925-0.76244 1.3625-1.4484 2.883-2.966 4.5709-4.7275 5.0609-5.2875l0.97812 0.0844c0.057 1.539 0.0844 2.539 0.0844 3 0 2.126-0.0426 4.6289-0.12656 7.5109l-0.12657 4.2188 0.0219 0.88125-0.16719 3.0422-0.23281 6.6297c0 0.378 0.16868 0.7485 0.50469 1.1125 0.099 0.111 0.39756 0.246 0.90156 0.4 0.336 0.098 0.70018 0.15556 1.0922 0.17656 0.391 0.021 0.69888 0.0801 0.92188 0.17812l0.0438 0.65157h-0.3578c-0.294 0-0.82532-0.0284-1.5953-0.0844-1.357-0.083-2.3564-0.125-2.9984-0.125-0.462 0-0.98506 0.0479-1.5641 0.14688-0.582 0.098-1.0664 0.14687-1.4594 0.14687zm-37.809-0.12656c0.015-0.351 0.077-0.566 0.18907-0.65 0.153-0.113 0.8085-0.21269 1.9625-0.30469 1.154-0.091 1.9892-0.26994 2.5062-0.53594 0.097-0.183 0.17525-0.37119 0.23125-0.56719 0.084-0.98 0.12657-1.9102 0.12657-2.7922 0-0.336-0.009-0.63025-0.0218-0.88125l-0.0422-1.0938 0.0422-0.86094v-1.9312l0.0218-1.6375-0.0422-1.4922 0.0844-2.5406v-2.3094l0.0203-2.2047c0-3.221-0.15493-5.0165-0.46093-5.3875-0.309-0.372-1.5319-0.62562-3.6719-0.76562-0.322-0.029-0.63732-0.10625-0.94532-0.23125l0.0422-0.62969h0.39844l4.9406-0.0203 2.9 0.0422c0.896-0.042 1.5203-0.0641 1.8703-0.0641 0.603 0 1.5412 0.0221 2.8172 0.0641v0.16719c0 0.126-0.023 0.2795-0.0641 0.4625-0.21 0.195-0.70705 0.30794-1.489 0.33594-0.364 0.014-0.86695 0.0976-1.511 0.25156-0.435 0.111-0.74536 0.26156-0.93436 0.45156-0.189 0.188-0.32144 0.49982-0.39844 0.93282-0.076 0.435-0.11563 1.4351-0.11563 3.0031 0 0.42 0.0142 1.212 0.0422 2.375v3.6953l-0.0844 9.3453 0.10468 2.7078c0.029 0.686 0.11257 1.1558 0.25157 1.4078 0.085 0.168 0.217 0.28625 0.4 0.35625 0.293 0.14 1.1038 0.28719 2.4328 0.44219 0.657 0.084 1.1262 0.16025 1.4062 0.23125 0.028 0.195 0.0422 0.40312 0.0422 0.62812-2.382-0.085-4.2882-0.125-5.7172-0.125l-5.5688 0.125h-1.7656zm-150.8-0.0422c-0.155 0-0.52294-0.0142-1.1109-0.0422l-0.0219-0.14688c0-0.098 0.0215-0.22987 0.0625-0.39687 0.112-0.085 0.2245-0.14706 0.3375-0.18906 1.188-0.28 1.88-0.5015 2.075-0.6625 0.196-0.161 0.29531-0.33838 0.29531-0.53438 0-0.069-0.0205-0.18294-0.0625-0.33594l-0.0641-0.33594c-0.154-0.742-0.35581-1.5098-0.60781-2.3078l-2.4297-6.9234-1.6141-4.0703c-0.447-1.134-0.89463-2.2118-1.3406-3.2328l-1.2797-3.3359-0.0406-0.10469-0.31406-1.0078c-0.323 0.868-0.72425 1.8124-1.2062 2.8344-0.483 1.02-0.77488 1.6422-0.87188 1.8672l-2.1609 5.014c-0.364 0.811-0.62256 1.3985-0.77656 1.7625l0.85781 1.9922c0.265 0.531 0.44675 0.95825 0.54375 1.2812 0.237 0.516 0.538 1.2931 0.9 2.3281l1.5281 3.4c0.279 0.49 0.59375 0.86681 0.94375 1.1328 0.532 0.378 1.3282 0.65706 2.3922 0.83906 0.419 0.07 0.68881 0.15413 0.80781 0.25313 0.119 0.098 0.17812 0.22256 0.17812 0.37656 0 0.097-0.0552 0.20206-0.16718 0.31406-0.224 0.056-0.39213 0.0903-0.50313 0.10625l-1.4688-0.0219-0.88125 0.0219h-1.4266c-1.735 0.097-2.7072 0.13169-2.9172 0.10469-0.113-0.015-0.23912-0.0771-0.37812-0.18906-0.071-0.154-0.10469-0.27382-0.10469-0.35782l0.0219-0.16562 0.37813-0.17031 0.43906-0.0609c0.629-0.057 1.0352-0.16794 1.2172-0.33594 0.238-0.238 0.35781-0.50444 0.35781-0.79844 0-0.545-0.23806-1.3921-0.71406-2.5391-1.129-2.768-2.02-4.7984-2.675-6.0844l-2.1469 4.8469c-1.08 2.547-1.6203 3.9512-1.6203 4.2172 0 0.14 0.067 0.25194 0.2 0.33594s0.61094 0.17443 1.4359 0.27343c0.574 0.055 0.97187 0.12638 1.1969 0.20938 0.055 0.126 0.0844 0.23694 0.0844 0.33594 0 0.111-0.0504 0.21268-0.14844 0.30468-0.097 0.09-0.24306 0.13594-0.43906 0.13594l-0.33594-0.0203c-0.252 0.013-0.44119 0.0203-0.56719 0.0203l-1.9719-0.10468h-1.0906l-1.0281-0.0219h-1.1547l-0.67188-0.0188-1.3203 0.0406c-0.182 0-0.49831-0.008-0.94531-0.0219-0.098-0.069-0.1595-0.16293-0.1875-0.28593 0-0.164 0.0558-0.30725 0.16875-0.43125l0.44219-0.1c1.236-0.07 1.9798-0.19669 2.2328-0.37969 0.253-0.182 0.652-0.9035 1.2-2.1625 0.266-0.604 0.63594-1.4145 1.1109-2.4375l3.6047-8.1969 0.16719-0.42031c-0.238-0.741-0.83181-2.092-1.7828-4.05-1.217-2.546-2.1398-4.328-2.7688-5.35-0.126 0.252-0.21056 0.43331-0.25156 0.54531-0.798 1.818-1.3019 2.9999-1.5109 3.5469-0.602 1.579-1.0971 2.8096-1.4891 3.6906-0.125 0.28-0.37038 0.90375-0.73438 1.8688l-3.1453 7.8891-1.3203 3.6922c-0.097 0.266-0.20363 0.51925-0.31563 0.75625-0.083 0.182-0.125 0.31444-0.125 0.39844 0 0.069 0.0274 0.17462 0.0844 0.31562 0.168 0.056 0.30044 0.0897 0.39844 0.10469l1.9984 0.0844c0.028 0.237 0.0406 0.41875 0.0406 0.54375 0 0.084-0.006 0.21113-0.0187 0.37813-0.377 0.056-1.4808 0.0844-3.3078 0.0844l-0.50156-0.0203-1.1312 0.0203-1.9453 0.0219c-0.908 0-1.4597-0.12612-1.6547-0.37812l0.02031-0.33594c0.265-0.112 0.67738-0.22494 1.2344-0.33594 0.558-0.112 0.96362-0.37 1.2156-0.775 0.641-1.539 1.0319-2.5269 1.1719-2.9609 0.084-0.279 0.17387-0.55119 0.27187-0.81719 0.125-0.364 0.27263-0.74812 0.44063-1.1531l2.4703-6.2531 2.8062-6.5891 3.3922-8.3094 0.96094 0.0219c0.418 0.544 0.96225 1.5239 1.6312 2.9359l1.6297 3.3156c1.004 2.238 1.8614 4.0352 2.5734 5.3922l0.25 0.41874c1.282-2.419 2.7247-5.4606 4.3297-9.1266 0.62-1.44 1.0201-2.4189 1.2031-2.9359 0.175-0.014 0.31069-0.0219 0.40469-0.0219 0.107 0 0.26838 0.0148 0.48438 0.0438l0.9 2.3906 2.2609 6.2953c1.104 2.783 2.1155 5.4468 3.0375 7.9938l0.22813 0.60938 0.3375 0.8375c0.181 0.433 0.29869 0.73412 0.35469 0.90312 0.195 0.6 0.38462 1.0834 0.56562 1.4484 0.838 2.433 1.2768 3.692 1.3188 3.775 0.365 0.868 0.61388 1.4003 0.74688 1.5953 0.133 0.196 0.32218 0.37832 0.56718 0.54532 0.246 0.168 0.87282 0.44706 1.8828 0.83906 0.028 0.196 0.0422 0.34418 0.0422 0.44218l-0.0203 0.20938-0.63125 0.0422h-1.5719l-1.825-0.0219-1.6172 0.0422zm6.9453-0.0625c-0.098 0-0.20993-0.0347-0.33593-0.10469-0.07-0.154-0.10469-0.288-0.10469-0.4 0-0.154 0.0914-0.27912 0.27344-0.37812 0.405-0.069 0.87425-0.11 1.4062-0.125 1.245-0.041 1.9933-0.1955 2.2453-0.4625 0.168-0.182 0.25787-0.98719 0.27187-2.4172l0.10469-5.9891-0.0219-5.275 0.0422-2.5234-0.0203-5.3375 0.0203-1.4703c0-0.505-0.0977-0.89813-0.29375-1.1781-0.321-0.169-1.1612-0.29412-2.5172-0.37812-0.574-0.042-0.98019-0.0977-1.2172-0.16875-0.098-0.027-0.21625-0.102-0.35625-0.225l-0.0219-0.20313c0-0.137 0.0392-0.23881 0.11718-0.30781 0.076-0.068 0.21913-0.10156 0.42813-0.10156 1.19 0 3.0429 0.0552 5.5609 0.16718 0.279 0.014 0.58012 0.0203 0.90312 0.0203h2.5594l6.2953 0.0844 2.6422-0.0203 5.8969 0.0625h0.46094c0.223 0.307 0.33594 0.69213 0.33594 1.1531 0.028 1.022 0.11787 2.0216 0.27187 3.0016 0.056 0.433 0.28775 1.3421 0.69375 2.7281-0.154 0.11-0.29431 0.16562-0.42031 0.16562-0.265 0-0.53188-0.2865-0.79688-0.8625-0.881-1.951-1.6112-3.2194-2.1922-3.8094-0.581-0.589-1.3191-1.0002-2.2141-1.2312-0.896-0.232-2.6922-0.34844-5.3922-0.34844-1.119 0-2.0599 0.0102-2.8219 0.0312s-1.1999 0.0312-1.3109 0.0312l-1.2812-0.0203c-0.798 0-1.3136 0.1545-1.5516 0.4625-0.167 0.224-0.25944 1.0507-0.27344 2.4797l-0.0219 2.375 0.0219 2.4391-0.0219 3.8672 0.0219 0.69219c0.602 0.084 1.8748 0.12656 3.8188 0.12656h1.3641c1.021 0 1.7898 0.009 2.3078 0.0312 0.517 0.02 0.87431 0.0312 1.0703 0.0312 0.895 0 1.5416-0.17738 1.9406-0.53438 0.398-0.357 0.78075-1.2411 1.1438-2.6531 0.21-0.827 0.426-1.4356 0.65-1.8266h0.14687c0.07 0 0.16144 0.0274 0.27344 0.0844 0.042 0.21 0.0625 0.37812 0.0625 0.50312 0 0.069-0.0386 0.55344-0.11562 1.4484-0.077 0.895-0.11406 1.7058-0.11406 2.4328 0 2.729 0.0347 4.3508 0.10468 4.8688 0.027 0.223 0.0422 0.38382 0.0422 0.48282 0 0.097-0.0152 0.20206-0.0422 0.31406-0.154 0.069-0.32268 0.10625-0.50468 0.10625-0.364-0.142-0.59813-0.74225-0.70313-1.8062-0.105-1.063-0.26187-1.7209-0.47187-1.9719-0.126-0.168-0.559-0.31462-1.3-0.44062-2.377 0-4.3234-0.0278-5.8344-0.0828-0.126-0.014-0.27206-0.0234-0.43906-0.0234-0.252 0-0.74175 0.0142-1.4688 0.0422-0.462 0.015-0.813 0.0219-1.05 0.0219h-0.35625c-0.182 0-0.35069 0.0205-0.50469 0.0625v2.9172c-0.07 3.189-0.10312 4.8679-0.10312 5.0359 0 1.636 0.11825 2.6218 0.35625 2.9578 0.154 0.196 0.61593 0.29375 1.3859 0.29375h0.525l5.9828 0.12657c0.294 0 0.59512-0.008 0.90312-0.0219 1.147-0.028 1.7849-0.0406 1.9109-0.0406 0.616 0 1.0222-0.0567 1.2172-0.16875 0.197-0.112 0.46931-0.46144 0.82031-1.0484 0.518-0.881 0.90662-1.6587 1.1656-2.3297 0.259-0.671 0.46475-1.1397 0.61875-1.4047 0.123-0.043 0.26094-0.0641 0.41094-0.0641 0.069 0.028 0.11044 0.0837 0.12344 0.16875-0.098 1.007-0.14531 2.2372-0.14531 3.6922 0 0.097 0.0307 0.34969 0.0937 0.75469 0.063 0.406 0.0937 0.70812 0.0937 0.90312-0.028 0.126-0.0763 0.24425-0.14532 0.35625l-0.21093 0.10469-1.7422-0.0625-0.35625 0.0625-2.9797-0.0203c-1.273 0.056-2.0712 0.0844-2.3922 0.0844-0.364 0-1.0619-0.0221-2.0969-0.0641-1.036-0.042-2.4764-0.0625-4.3234-0.0625l-3.6922 0.0844-1.5531-0.0422c-0.881 0-1.7344 0.0416-2.5594 0.12656-0.28 0.013-0.51906 0.0203-0.71406 0.0203zm126.15-0.42031c1.566 0 3.0421-0.3035 4.4281-0.9125 1.383-0.608 2.5658-1.4682 3.5438-2.5812 0.98-1.112 1.6863-2.3735 2.1203-3.7875 0.559-1.86 0.83906-3.7418 0.83906-5.6438 0-1.525-0.16812-3.0494-0.50312-4.5734-0.336-1.525-0.78237-2.7733-1.3344-3.7453-0.553-0.973-1.3169-1.8396-2.2969-2.6016-0.979-0.763-2.1012-1.3095-3.3672-1.6375-1.266-0.329-2.4859-0.49218-3.6609-0.49218-1.259 0-2.4409 0.21993-3.5469 0.66093-1.105 0.441-2.1011 1.0774-2.9891 1.9094-0.88901 0.832-1.6373 1.7845-2.2453 2.8625-0.609 1.078-1.0885 2.3513-1.4375 3.8203-0.351 1.469-0.525 2.7818-0.525 3.9438 0 1.104 0.174 2.3783 0.525 3.8203 0.349 1.44 0.86024 2.7577 1.5312 3.9547 0.672 1.195 1.3978 2.1188 2.1828 2.7688 0.782 0.651 1.783 1.1872 3 1.6062 1.218 0.42 2.4619 0.62813 3.7359 0.62813z"/></g></svg>
